<svg width="25" height="25" viewBox="0 0 25 25" fill="none" xmlns="http://www.w3.org/2000/svg">
<g id="vuesax/outline/arrow-swap-horizontal">
<g id="arrow-swap-horizontal">
<path id="Vector" d="M15.9897 21.2599C15.7997 21.2599 15.6097 21.1899 15.4597 21.0399C15.1697 20.7499 15.1697 20.2699 15.4597 19.9799L20.4697 14.9699C20.7597 14.6799 21.2397 14.6799 21.5297 14.9699C21.8197 15.2599 21.8197 15.7399 21.5297 16.0299L16.5197 21.0399C16.3697 21.1799 16.1797 21.2599 15.9897 21.2599Z" fill="#202020"/>
<path id="Vector_2" d="M21 16.24H4C3.59 16.24 3.25 15.9 3.25 15.49C3.25 15.08 3.59 14.74 4 14.74H21C21.41 14.74 21.75 15.08 21.75 15.49C21.75 15.9 21.41 16.24 21 16.24Z" fill="#202020"/>
<path id="Vector_3" d="M3.99945 10.2599C3.80945 10.2599 3.61945 10.1899 3.46945 10.0399C3.17945 9.74994 3.17945 9.26994 3.46945 8.97994L8.47945 3.96994C8.76945 3.67994 9.24945 3.67994 9.53945 3.96994C9.82945 4.25994 9.82945 4.73994 9.53945 5.02994L4.52945 10.0399C4.38945 10.1799 4.18945 10.2599 3.99945 10.2599Z" fill="#202020"/>
<path id="Vector_4" d="M21 10.26H4C3.59 10.26 3.25 9.92001 3.25 9.51001C3.25 9.10001 3.59 8.76001 4 8.76001H21C21.41 8.76001 21.75 9.10001 21.75 9.51001C21.75 9.92001 21.41 10.26 21 10.26Z" fill="#202020"/>
</g>
</g>
</svg>
