<svg width="32" height="32" viewBox="0 0 32 32" fill="none" xmlns="http://www.w3.org/2000/svg">
<path d="M25.4499 17.6401V18.6401C25.4499 18.9101 25.2399 19.1301 24.9599 19.1401H23.4999C22.9699 19.1401 22.4899 18.7501 22.4499 18.2301C22.4199 17.9201 22.5399 17.6301 22.7399 17.4301C22.9199 17.2401 23.1699 17.1401 23.4399 17.1401H24.9499C25.2399 17.1501 25.4499 17.3701 25.4499 17.6401Z" fill="#292D32"/>
<path d="M21.9902 16.6901C21.4902 17.1801 21.2502 17.9101 21.4502 18.6701C21.7102 19.6001 22.6202 20.1901 23.5802 20.1901H24.4502C25.0002 20.1901 25.4502 20.6401 25.4502 21.1901V21.3801C25.4502 23.4501 23.7602 25.1401 21.6902 25.1401H10.2102C8.1402 25.1401 6.4502 23.4501 6.4502 21.3801V14.6501C6.4502 13.4201 7.0402 12.3301 7.9502 11.6501C8.5802 11.1701 9.3602 10.8901 10.2102 10.8901H21.6902C23.7602 10.8901 25.4502 12.5801 25.4502 14.6501V15.0901C25.4502 15.6401 25.0002 16.0901 24.4502 16.0901H23.4302C22.8702 16.0901 22.3602 16.3101 21.9902 16.6901Z" fill="#292D32"/>
<path d="M20.2001 8.82C20.4701 9.09 20.2401 9.51 19.8601 9.51L12.1801 9.5C11.7401 9.5 11.5101 8.96 11.8301 8.65L13.4501 7.02C14.8201 5.66 17.0401 5.66 18.4101 7.02L20.1601 8.79C20.1701 8.8 20.1901 8.81 20.2001 8.82Z" fill="#292D32"/>
</svg>
