<svg width="16" height="17" viewBox="0 0 16 17" fill="none" xmlns="http://www.w3.org/2000/svg">
<path d="M4.97761 14.7024C7.12908 14.7024 8.87319 13.8772 8.87319 12.8592C8.87319 11.8413 7.12908 11.0161 4.97761 11.0161C2.82614 11.0161 1.08203 11.8413 1.08203 12.8592C1.08203 13.8772 2.82614 14.7024 4.97761 14.7024Z" fill="#F2A900"/>
<path d="M8.87319 12.1016H1.08203V12.8591H8.87319V12.1016Z" fill="#F2A900"/>
<path fill-rule="evenodd" clip-rule="evenodd" d="M4.97761 13.9445C7.12331 13.9445 8.87319 13.1166 8.87319 12.1013C8.87319 11.0862 7.12331 10.2583 4.97761 10.2583C2.832 10.2583 1.08203 11.0862 1.08203 12.1013C1.08195 13.1166 2.83192 13.9445 4.97761 13.9445Z" fill="#F2A900"/>
<path fill-rule="evenodd" clip-rule="evenodd" d="M4.97801 13.5866C6.84315 13.5866 8.36431 12.9194 8.36431 12.1014C8.36431 11.2834 6.84315 10.6162 4.97801 10.6162C3.11296 10.6162 1.5918 11.2834 1.5918 12.1014C1.59171 12.9194 3.11287 13.5866 4.97801 13.5866Z" fill="#FFD573"/>
<path d="M5.3557 11.2288C5.51515 11.2498 5.64811 11.284 5.75489 11.3321C5.90275 11.399 5.99726 11.4885 6.03858 11.6004L5.43979 11.6375C5.42353 11.598 5.3955 11.5642 5.3557 11.5361V11.2288ZM5.3557 11.9248C5.62694 11.9686 5.81841 12.022 5.92943 12.0849C6.06687 12.162 6.13546 12.261 6.13546 12.3823C6.13546 12.5173 6.049 12.6312 5.87692 12.7237C5.74346 12.7954 5.56961 12.8454 5.3557 12.8742V12.6076C5.38813 12.5966 5.41777 12.5838 5.44453 12.5689C5.51888 12.5272 5.55606 12.4787 5.55606 12.4224C5.55606 12.3723 5.52455 12.3295 5.46231 12.2932C5.43471 12.2771 5.39906 12.2626 5.35561 12.2498L5.3557 11.9248ZM4.81254 12.6308V12.1616C4.75919 12.1544 4.7083 12.1465 4.65986 12.1381V11.7992C4.70203 11.8158 4.75292 11.8302 4.81254 11.8424V11.4548C4.75394 11.4642 4.7033 11.4776 4.65986 11.4952V11.2221C4.70872 11.2169 4.75961 11.2131 4.81254 11.2105V11.0996H5.15517V11.2105C5.22613 11.2146 5.29295 11.2207 5.35561 11.2289L5.3557 11.5361C5.30675 11.5014 5.23994 11.4755 5.15517 11.4582V11.8961C5.22622 11.9051 5.29303 11.9148 5.35561 11.9248V12.2499C5.30116 12.2339 5.23426 12.2206 5.15517 12.2099V12.6464C5.23121 12.6399 5.29803 12.627 5.3557 12.6076V12.8742C5.29235 12.8828 5.22546 12.8894 5.15517 12.8941V13.1037H4.81254V12.8995C4.7597 12.8965 4.70881 12.8923 4.65986 12.8868V12.5795C4.70745 12.6013 4.75843 12.6184 4.81254 12.6308ZM4.65986 12.1381C4.42723 12.0973 4.25109 12.0418 4.13144 11.9716C3.98756 11.8867 3.91482 11.7838 3.91482 11.663C3.91482 11.5406 3.99645 11.4378 4.15964 11.3545C4.29166 11.2874 4.45831 11.2434 4.65986 11.222V11.4951C4.63386 11.5056 4.61049 11.5175 4.58957 11.5308C4.53461 11.5668 4.50709 11.6066 4.50709 11.6497C4.50709 11.6891 4.53216 11.7262 4.58229 11.7599C4.60363 11.7741 4.62946 11.7872 4.65977 11.7992V12.138L4.65986 12.1381ZM4.65986 12.8868C4.45543 12.864 4.28429 12.82 4.14676 12.755C3.97621 12.6746 3.86799 12.5607 3.82031 12.4136L4.4385 12.3822C4.46348 12.4418 4.51124 12.4935 4.58068 12.5367C4.60592 12.5526 4.63234 12.5667 4.65986 12.5794V12.8868Z" fill="#F2A900"/>
<path fill-rule="evenodd" clip-rule="evenodd" d="M7.60457 13.7213C9.75026 13.7213 11.5001 12.8934 11.5001 11.8782C11.5001 10.8631 9.75026 10.0352 7.60457 10.0352C5.45896 10.0352 3.70898 10.863 3.70898 11.8782C3.70898 12.8933 5.45896 13.7213 7.60457 13.7213Z" fill="#F2A900"/>
<path d="M11.5001 11.1206H3.70898V11.8783H11.5001V11.1206Z" fill="#F2A900"/>
<path d="M7.60457 12.9636C9.75604 12.9636 11.5001 12.1384 11.5001 11.1205C11.5001 10.1025 9.75604 9.27734 7.60457 9.27734C5.4531 9.27734 3.70898 10.1025 3.70898 11.1205C3.70898 12.1384 5.4531 12.9636 7.60457 12.9636Z" fill="#F2A900"/>
<path d="M7.60407 12.6056C9.47427 12.6056 10.9904 11.9407 10.9904 11.1204C10.9904 10.3002 9.47427 9.63525 7.60407 9.63525C5.73387 9.63525 4.21777 10.3002 4.21777 11.1204C4.21777 11.9407 5.73387 12.6056 7.60407 12.6056Z" fill="#FFD573"/>
<path d="M7.98257 10.248C8.14202 10.2688 8.27498 10.303 8.38185 10.3511C8.5297 10.418 8.62412 10.5075 8.66553 10.6195L8.06683 10.6566C8.05048 10.617 8.02254 10.5832 7.98265 10.5551V10.248H7.98257ZM7.98257 10.9439C8.25381 10.9878 8.44536 11.0411 8.55629 11.1039C8.69373 11.1812 8.76241 11.2802 8.76241 11.4013C8.76241 11.5363 8.67595 11.6502 8.50388 11.7427C8.37041 11.8145 8.19639 11.8646 7.98257 11.8933V11.6266C8.01517 11.6157 8.04472 11.6028 8.07157 11.5879C8.14584 11.5462 8.18301 11.4977 8.18301 11.4415C8.18301 11.3914 8.15143 11.3485 8.08927 11.3123C8.06166 11.2962 8.02609 11.2817 7.98257 11.2689V10.9439ZM7.43958 11.6498V11.1807C7.38614 11.1735 7.33525 11.1656 7.28673 11.1571V10.8183C7.3289 10.8348 7.37988 10.8493 7.43958 10.8616V10.4739C7.38106 10.4832 7.33025 10.4968 7.28673 10.5143V10.2412C7.33567 10.2359 7.38665 10.2321 7.43958 10.2296V10.1187H7.78212V10.2296C7.85309 10.2337 7.9199 10.2398 7.98257 10.248V10.5551C7.93362 10.5206 7.86697 10.4946 7.78212 10.4773V10.9151C7.85326 10.9242 7.92007 10.9337 7.98257 10.9439V11.269C7.92812 11.253 7.8613 11.2396 7.78212 11.2289V11.6656C7.85817 11.6589 7.92481 11.6459 7.98257 11.6266V11.8933C7.91922 11.9018 7.85258 11.9084 7.78212 11.9132V12.1228H7.43958V11.9186C7.38682 11.9156 7.33584 11.9114 7.28673 11.9059V11.5987C7.3344 11.6204 7.3853 11.6374 7.43958 11.6498ZM7.28673 11.1571C7.05419 11.1163 6.87796 11.0609 6.75831 10.9907C6.61443 10.9059 6.54169 10.8031 6.54169 10.6822C6.54169 10.5599 6.62341 10.4571 6.78659 10.3737C6.91869 10.3067 7.08527 10.2625 7.28673 10.2412V10.5143C7.26073 10.5248 7.23744 10.5367 7.21661 10.55C7.16157 10.586 7.13405 10.6257 7.13405 10.6689C7.13405 10.7083 7.15919 10.7453 7.20933 10.779C7.23067 10.7932 7.25649 10.8062 7.28673 10.8183V11.1571ZM7.28673 11.9058C7.08247 11.883 6.91124 11.8392 6.77372 11.774C6.60317 11.6938 6.49494 11.5798 6.44727 11.4327L7.06545 11.4013C7.09043 11.4609 7.13819 11.5125 7.20772 11.5557C7.23287 11.5716 7.25929 11.5858 7.28681 11.5986V11.9058H7.28673Z" fill="#F2A900"/>
<path fill-rule="evenodd" clip-rule="evenodd" d="M4.45515 12.1329C6.60076 12.1329 8.35082 11.3051 8.35082 10.2899C8.35082 9.27472 6.60076 8.44678 4.45515 8.44678C2.30954 8.44678 0.55957 9.27464 0.55957 10.2899C0.559486 11.305 2.30946 12.1329 4.45515 12.1329Z" fill="#F2A900"/>
<path d="M8.3509 9.53223H0.55957V10.2899H8.3509V9.53223Z" fill="#F2A900"/>
<path d="M4.45524 11.3752C6.60675 11.3752 8.3509 10.55 8.3509 9.53209C8.3509 8.51416 6.60675 7.68896 4.45524 7.68896C2.30372 7.68896 0.55957 8.51416 0.55957 9.53209C0.55957 10.55 2.30372 11.3752 4.45524 11.3752Z" fill="#F2A900"/>
<path d="M4.45555 11.0172C6.3257 11.0172 7.84176 10.3523 7.84176 9.53204C7.84176 8.71181 6.3257 8.04688 4.45555 8.04688C2.5854 8.04688 1.06934 8.71181 1.06934 9.53204C1.06934 10.3523 2.5854 11.0172 4.45555 11.0172Z" fill="#FFD573"/>
<path d="M4.83324 8.65958C4.99269 8.68042 5.12565 8.71463 5.23243 8.76273C5.38029 8.82963 5.47479 8.91914 5.51604 9.03117L4.91733 9.06826C4.90098 9.02863 4.87304 8.99484 4.83324 8.96673V8.65958ZM4.83324 9.35551C5.10447 9.39937 5.29594 9.45272 5.40696 9.51556C5.54432 9.59279 5.613 9.69178 5.613 9.81305C5.613 9.94804 5.52654 10.0618 5.35446 10.1544C5.221 10.226 5.04714 10.2762 4.83324 10.3049V10.0382C4.86575 10.0274 4.89531 10.0145 4.92207 9.99961C4.99642 9.95794 5.0336 9.90933 5.0336 9.85319C5.0336 9.80306 5.00201 9.76029 4.93985 9.72396C4.91216 9.70787 4.8766 9.69339 4.83315 9.68061L4.83324 9.35551ZM4.29016 10.0614V9.59237C4.23681 9.58508 4.18592 9.57729 4.13748 9.56874V9.22992C4.17966 9.24652 4.23055 9.26092 4.29016 9.2732V8.88552C4.23156 8.89483 4.18084 8.9083 4.13748 8.92583V8.65273C4.18635 8.64756 4.23724 8.64366 4.29016 8.64112V8.53027H4.63279V8.64112C4.70376 8.64527 4.77049 8.65137 4.83324 8.65958V8.96673C4.78429 8.93218 4.71748 8.90618 4.63279 8.88891V9.32663C4.70384 9.33569 4.77065 9.34543 4.83324 9.35551V9.68052C4.7787 9.6646 4.71189 9.65114 4.63279 9.64055V10.0771C4.70884 10.0705 4.77557 10.0575 4.83324 10.0381V10.3048C4.76989 10.3134 4.70308 10.32 4.63279 10.3248V10.5343H4.29016V10.3301C4.23732 10.3272 4.18643 10.3228 4.13748 10.3174V10.0101C4.18499 10.032 4.23588 10.0491 4.29016 10.0614ZM4.1374 9.56874C3.90477 9.52801 3.72863 9.47262 3.60898 9.40234C3.4651 9.31749 3.39236 9.2146 3.39236 9.09384C3.39236 8.97147 3.47399 8.86858 3.63717 8.78534C3.7692 8.71827 3.93585 8.67415 4.1374 8.65281V8.92591C4.1114 8.93641 4.08803 8.94835 4.06711 8.96165C4.01215 8.99755 3.98463 9.03735 3.98463 9.08054C3.98463 9.11992 4.00969 9.15693 4.05983 9.19063C4.08108 9.20494 4.107 9.21798 4.1374 9.23001V9.56874ZM4.1374 10.3174C3.93297 10.2946 3.76175 10.2508 3.62431 10.1857C3.45375 10.1054 3.34544 9.99139 3.29785 9.8443L3.91604 9.81297C3.94102 9.8725 3.98878 9.92415 4.05822 9.96734C4.08337 9.98326 4.10979 9.9974 4.1374 10.0101V10.3174Z" fill="#F2A900"/>
<path d="M7.24324 10.7956C9.39471 10.7956 11.1388 9.97043 11.1388 8.9525C11.1388 7.93457 9.39471 7.10938 7.24324 7.10938C5.09177 7.10938 3.34766 7.93457 3.34766 8.9525C3.34766 9.97043 5.09177 10.7956 7.24324 10.7956Z" fill="#F2A900"/>
<path d="M11.1389 8.19482H3.34766V8.95248H11.1389V8.19482Z" fill="#F2A900"/>
<path d="M7.24226 10.0378C9.39373 10.0378 11.1378 9.21261 11.1378 8.19468C11.1378 7.17676 9.39373 6.35156 7.24226 6.35156C5.09079 6.35156 3.34668 7.17676 3.34668 8.19468C3.34668 9.21261 5.09079 10.0378 7.24226 10.0378Z" fill="#F2A900"/>
<path fill-rule="evenodd" clip-rule="evenodd" d="M7.24274 9.67989C9.10772 9.67989 10.629 9.01268 10.629 8.19473C10.629 7.37669 9.10772 6.70947 7.24274 6.70947C5.3776 6.70947 3.85645 7.37669 3.85645 8.19473C3.85636 9.01268 5.3776 9.67989 7.24274 9.67989Z" fill="#FFD573"/>
<path d="M7.62035 7.32218C7.77981 7.34301 7.91276 7.37723 8.01946 7.42533C8.16748 7.49222 8.2619 7.58173 8.30314 7.69368L7.70444 7.73086C7.68826 7.69123 7.66015 7.65744 7.62043 7.62933V7.32218H7.62035ZM7.62035 8.01811C7.89159 8.06197 8.08314 8.11532 8.19407 8.17807C8.33151 8.2553 8.40019 8.35438 8.40019 8.47565C8.40019 8.61055 8.31365 8.72453 8.14148 8.817C8.00819 8.88864 7.83417 8.93878 7.62035 8.96749V8.70082C7.65278 8.68998 7.68233 8.67702 7.70918 8.66212C7.78361 8.62054 7.82079 8.57193 7.82079 8.5157C7.82079 8.46557 7.78921 8.42272 7.72696 8.38647C7.69936 8.37038 7.66379 8.3559 7.62026 8.34312V8.01811H7.62035ZM7.07728 8.72402V8.25496C7.02384 8.24768 6.97286 8.23981 6.92442 8.23134V7.89244C6.96668 7.90903 7.01758 7.92351 7.07728 7.93579V7.54811C7.01859 7.55734 6.96795 7.57098 6.92442 7.58851V7.31541C6.97345 7.31024 7.02418 7.30635 7.07728 7.30381V7.19287H7.41982V7.30381C7.49078 7.30787 7.5576 7.31397 7.62026 7.32227V7.62933C7.57132 7.59478 7.5045 7.56878 7.41982 7.5515V7.98931C7.49095 7.99837 7.55777 8.00803 7.62026 8.01811V8.3432C7.56581 8.3272 7.499 8.31382 7.41982 8.30315V8.73977C7.49586 8.73317 7.56251 8.72021 7.62026 8.70082V8.96749C7.55692 8.97604 7.4901 8.98273 7.41982 8.98747V9.19697H7.07728V8.9928C7.02435 8.98984 6.97337 8.98552 6.92442 8.9801V8.67279C6.9721 8.69455 7.02308 8.71174 7.07728 8.72402ZM6.92442 8.23134C6.6918 8.19052 6.51566 8.13514 6.396 8.06493C6.25213 7.98008 6.17938 7.87719 6.17938 7.75644C6.17938 7.63407 6.26102 7.53118 6.4242 7.44776C6.55631 7.38078 6.72288 7.33666 6.92442 7.31524V7.58834C6.89842 7.59875 6.87514 7.61078 6.8543 7.62407C6.79918 7.65998 6.77166 7.69978 6.77166 7.74297C6.77166 7.78235 6.7968 7.81935 6.84702 7.85306C6.86819 7.86737 6.89419 7.88041 6.92442 7.89235V8.23134ZM6.92442 8.98002C6.72008 8.95715 6.54894 8.91337 6.41133 8.84825C6.24086 8.76797 6.13255 8.65399 6.08496 8.50681L6.70306 8.47556C6.72804 8.53509 6.7758 8.58675 6.84541 8.62994C6.87056 8.64577 6.89699 8.66 6.92451 8.6727V8.98002H6.92442Z" fill="#F2A900"/>
<path d="M6.04695 9.45773C8.19842 9.45773 9.94253 8.63254 9.94253 7.61461C9.94253 6.59668 8.19842 5.77148 6.04695 5.77148C3.89548 5.77148 2.15137 6.59668 2.15137 7.61461C2.15137 8.63254 3.89548 9.45773 6.04695 9.45773Z" fill="#F2A900"/>
<path d="M9.94261 6.85693H2.15137V7.61459H9.94261V6.85693Z" fill="#F2A900"/>
<path fill-rule="evenodd" clip-rule="evenodd" d="M6.04801 8.69983C8.19354 8.69983 9.94359 7.87197 9.94359 6.85679C9.94359 5.84162 8.19354 5.01367 6.04801 5.01367C3.9024 5.01367 2.15234 5.84162 2.15234 6.85679C2.15234 7.87197 3.9024 8.69983 6.04801 8.69983Z" fill="#F2A900"/>
<path fill-rule="evenodd" clip-rule="evenodd" d="M6.04841 8.34192C7.91347 8.34192 9.43479 7.6747 9.43479 6.85675C9.43479 6.03871 7.91347 5.37158 6.04841 5.37158C4.18327 5.37158 2.66211 6.03871 2.66211 6.85675C2.66211 7.6747 4.18335 8.34192 6.04841 8.34192Z" fill="#FFD573"/>
<path d="M6.42584 5.98421C6.58538 6.00512 6.71825 6.03934 6.82512 6.08744C6.97306 6.15434 7.06748 6.24376 7.10864 6.3558L6.50993 6.39289C6.49367 6.35326 6.46564 6.31947 6.42584 6.29135V5.98421ZM6.42584 6.68022C6.69708 6.724 6.88863 6.77743 6.99965 6.84027C7.13692 6.91741 7.20577 7.01649 7.20577 7.13767C7.20577 7.27266 7.11931 7.38656 6.94706 7.47912C6.81377 7.55076 6.63983 7.60089 6.42584 7.6296V7.36284C6.45836 7.352 6.488 7.33913 6.51476 7.32423C6.58911 7.28257 6.62629 7.23404 6.62629 7.17781C6.62629 7.12768 6.5947 7.08491 6.53254 7.04859C6.50494 7.0325 6.46937 7.01802 6.42584 7.00523V6.68022ZM5.88286 7.38613V6.91708C5.82951 6.90979 5.77861 6.90192 5.73017 6.89345V6.55463C5.77226 6.57123 5.82324 6.58563 5.88286 6.5979V6.21023C5.82425 6.21946 5.77353 6.23309 5.73017 6.25062V5.97752C5.77903 5.97227 5.82993 5.96846 5.88286 5.96591V5.85498H6.22548V5.96591C6.29636 5.96998 6.36326 5.97608 6.42593 5.98429V6.29144C6.37698 6.25689 6.31033 6.23097 6.22548 6.2137V6.65142C6.29653 6.66057 6.36335 6.67014 6.42593 6.6803V7.00531C6.37147 6.98931 6.30466 6.97593 6.22548 6.96526V7.40188C6.30153 7.39528 6.36826 7.38215 6.42593 7.36284V7.6296C6.36258 7.63815 6.29585 7.64484 6.22548 7.64958V7.85909H5.88286V7.65492C5.83001 7.65195 5.77912 7.64763 5.73017 7.64221V7.3349C5.77768 7.35666 5.82866 7.37385 5.88286 7.38613ZM5.73017 6.89345C5.49755 6.85263 5.32141 6.79725 5.20175 6.72705C5.05787 6.64219 4.98513 6.5393 4.98513 6.41855C4.98513 6.29618 5.06677 6.19329 5.22995 6.11005C5.36197 6.04289 5.52863 5.99886 5.73017 5.97752V6.25062C5.70417 6.26103 5.6808 6.27298 5.65989 6.28636C5.60493 6.32226 5.5774 6.36206 5.5774 6.40525C5.5774 6.44463 5.60247 6.48163 5.6526 6.51534C5.67386 6.52956 5.69977 6.54269 5.73009 6.55472V6.89345H5.73017ZM5.73017 7.64221C5.52575 7.61935 5.35452 7.57557 5.21708 7.51036C5.04653 7.43017 4.93822 7.31618 4.89062 7.169L5.50881 7.13767C5.53379 7.19729 5.58155 7.24895 5.65099 7.29213C5.67614 7.30805 5.70256 7.3222 5.73017 7.3349V7.64221Z" fill="#F2A900"/>
<path fill-rule="evenodd" clip-rule="evenodd" d="M7.04313 8.40255C9.18865 8.40255 10.9387 7.57461 10.9387 6.55943C10.9387 5.54425 9.18865 4.71631 7.04313 4.71631C4.89743 4.71631 3.14746 5.54425 3.14746 6.55943C3.14746 7.57461 4.89743 8.40255 7.04313 8.40255Z" fill="#F2A900"/>
<path d="M10.9387 5.80225H3.14746V6.55982H10.9387V5.80225Z" fill="#F2A900"/>
<path fill-rule="evenodd" clip-rule="evenodd" d="M7.04313 7.64523C9.18865 7.64523 10.9387 6.81729 10.9387 5.80219C10.9387 4.78702 9.18865 3.95898 7.04313 3.95898C4.89743 3.95898 3.14746 4.78693 3.14746 5.80219C3.14746 6.8172 4.89743 7.64523 7.04313 7.64523Z" fill="#F2A900"/>
<path fill-rule="evenodd" clip-rule="evenodd" d="M7.04353 7.28723C8.9085 7.28723 10.4298 6.6201 10.4298 5.80215C10.4298 4.98411 8.9085 4.31689 7.04353 4.31689C5.17839 4.31689 3.65723 4.98411 3.65723 5.80215C3.65723 6.6201 5.17839 7.28723 7.04353 7.28723Z" fill="#FFD573"/>
<path d="M7.42104 4.92952C7.5805 4.95044 7.71345 4.98465 7.82032 5.03275C7.96818 5.09965 8.0626 5.18907 8.10384 5.30111L7.50513 5.33828C7.48896 5.29865 7.46084 5.26486 7.42113 5.23675V4.92952H7.42104ZM7.42104 5.62553C7.69228 5.66939 7.88383 5.72274 7.99477 5.78549C8.13204 5.86272 8.20089 5.9618 8.20089 6.08298C8.20089 6.21797 8.11443 6.33178 7.94218 6.42442C7.80872 6.49607 7.63487 6.5462 7.42104 6.57491V6.30816C7.45348 6.29732 7.48303 6.28445 7.50987 6.26954C7.58431 6.22788 7.62149 6.17935 7.62149 6.12304C7.62149 6.07299 7.5899 6.03014 7.52774 5.9939C7.50014 5.97781 7.46457 5.96333 7.42104 5.95054V5.62553ZM6.87806 6.33144V5.86239C6.82462 5.8551 6.77373 5.84723 6.72529 5.83876V5.49986C6.76746 5.51645 6.81835 5.53094 6.87806 5.54322V5.15554C6.81937 5.16477 6.76865 5.17832 6.72529 5.19585V4.92283C6.77407 4.91758 6.82513 4.91368 6.87806 4.91123V4.80029H7.2206V4.91123C7.29156 4.91529 7.35838 4.92139 7.42104 4.9296V5.23675C7.3721 5.2022 7.30545 5.1762 7.2206 5.15892V5.59674C7.29173 5.6058 7.35855 5.61545 7.42104 5.62561V5.95054C7.36659 5.93445 7.29961 5.92115 7.2206 5.91057V6.3472C7.29664 6.34059 7.36329 6.32755 7.42104 6.30816V6.57491C7.3577 6.58346 7.29089 6.59007 7.2206 6.59481V6.8044H6.87806V6.60023C6.8253 6.59718 6.77424 6.59295 6.72529 6.58753V6.28021C6.77271 6.30197 6.82377 6.31916 6.87806 6.33144ZM6.72529 5.83876C6.49266 5.79786 6.31644 5.74256 6.19678 5.67236C6.05291 5.58751 5.98016 5.48462 5.98016 5.36386C5.98016 5.24158 6.0618 5.13868 6.22498 5.05527C6.357 4.9882 6.52366 4.94408 6.7252 4.92283V5.19585C6.69904 5.20635 6.67575 5.21829 6.65492 5.23158C6.59987 5.26757 6.57244 5.30737 6.57244 5.35048C6.57244 5.38994 6.59759 5.42695 6.64763 5.46065C6.66897 5.47488 6.6948 5.488 6.7252 5.49994V5.83876H6.72529ZM6.72529 6.58753C6.52095 6.56466 6.34972 6.5208 6.2122 6.45567C6.04164 6.37548 5.93333 6.2615 5.88574 6.11432L6.50393 6.08298C6.52891 6.1426 6.57667 6.19417 6.64611 6.23745C6.67126 6.25337 6.69768 6.26751 6.72529 6.28021V6.58753Z" fill="#F2A900"/>
<path d="M5.70515 7.2966C7.85662 7.2966 9.60073 6.4714 9.60073 5.45348C9.60073 4.43555 7.85662 3.61035 5.70515 3.61035C3.55368 3.61035 1.80957 4.43555 1.80957 5.45348C1.80957 6.4714 3.55368 7.2966 5.70515 7.2966Z" fill="#F2A900"/>
<path d="M9.60082 4.6958H1.80957V5.45346H9.60082V4.6958Z" fill="#F2A900"/>
<path fill-rule="evenodd" clip-rule="evenodd" d="M5.70515 6.5387C7.85085 6.5387 9.60073 5.71084 9.60073 4.69566C9.60073 3.68048 7.85085 2.85254 5.70515 2.85254C3.55954 2.85254 1.80957 3.6804 1.80957 4.69566C1.80957 5.71084 3.55954 6.5387 5.70515 6.5387Z" fill="#F2A900"/>
<path fill-rule="evenodd" clip-rule="evenodd" d="M5.70466 6.18087C7.56972 6.18087 9.09104 5.51365 9.09104 4.6957C9.09104 3.87767 7.56972 3.21045 5.70466 3.21045C3.8396 3.21045 2.31836 3.87767 2.31836 4.6957C2.31836 5.51365 3.8396 6.18087 5.70466 6.18087Z" fill="#FFD573"/>
<path d="M6.08315 3.82307C6.2427 3.84399 6.37565 3.8782 6.48235 3.9263C6.6302 3.9932 6.72479 4.08271 6.76595 4.19475L6.16716 4.23184C6.1509 4.19221 6.12287 4.15842 6.08307 4.13031V3.82307H6.08315ZM6.08315 4.51908C6.35439 4.56295 6.54586 4.6163 6.65679 4.67913C6.79423 4.75628 6.863 4.85536 6.863 4.97654C6.863 5.11152 6.77645 5.22534 6.60446 5.31798C6.471 5.38962 6.29706 5.43976 6.08315 5.46846V5.20171C6.11567 5.19087 6.14522 5.178 6.17198 5.1631C6.24634 5.12143 6.28351 5.07291 6.28351 5.01668C6.28351 4.96655 6.25193 4.9237 6.18977 4.88745C6.16216 4.87136 6.12659 4.85688 6.08307 4.8441V4.51908H6.08315ZM5.54008 5.225V4.75594C5.48673 4.74866 5.43575 4.74078 5.38731 4.73231V4.39341C5.42948 4.41001 5.48038 4.42449 5.54008 4.43677V4.04909C5.48148 4.05841 5.43075 4.07196 5.38731 4.0894V3.81639C5.43617 3.81114 5.48707 3.80732 5.54008 3.80478V3.69385H5.88271V3.80478C5.95359 3.80885 6.0204 3.81494 6.08315 3.82316V4.13031C6.03421 4.09575 5.96748 4.06976 5.88271 4.05248V4.49029C5.95376 4.49935 6.02057 4.50909 6.08315 4.51917V4.84418C6.02862 4.82809 5.9618 4.8148 5.88271 4.80413V5.24075C5.95867 5.23414 6.02548 5.2211 6.08315 5.20171V5.46846C6.01981 5.47702 5.95299 5.48362 5.88271 5.48836V5.69795H5.54008V5.49378C5.48724 5.49082 5.43634 5.4865 5.38731 5.48108V5.17377C5.4349 5.19553 5.48588 5.21264 5.54008 5.225ZM5.3874 4.73223C5.15477 4.69133 4.97863 4.63603 4.85897 4.56583C4.7151 4.48097 4.64244 4.37809 4.64244 4.25733C4.64244 4.13505 4.72399 4.03216 4.88726 3.94874C5.01937 3.88168 5.18594 3.83756 5.38748 3.8163V4.08932C5.36149 4.09982 5.33811 4.11176 5.31719 4.12514C5.26224 4.16104 5.23471 4.20084 5.23471 4.24403C5.23471 4.28341 5.25978 4.32042 5.30991 4.35412C5.33125 4.36835 5.35708 4.38147 5.38748 4.39341V4.73223H5.3874ZM5.3874 5.481C5.18306 5.45813 5.01183 5.41435 4.8743 5.34914C4.70375 5.26895 4.59553 5.15497 4.54785 5.00779L5.16604 4.97645C5.1911 5.03607 5.23878 5.08764 5.30822 5.13092C5.33346 5.14667 5.35988 5.16098 5.3874 5.17368V5.481Z" fill="#F2A900"/>
<path d="M4.73445 6.27463C6.88592 6.27463 8.63003 5.44943 8.63003 4.4315C8.63003 3.41357 6.88592 2.58838 4.73445 2.58838C2.58298 2.58838 0.838867 3.41357 0.838867 4.4315C0.838867 5.44943 2.58298 6.27463 4.73445 6.27463Z" fill="#F2A900"/>
<path d="M8.63011 3.67383H0.838867V4.4314H8.63011V3.67383Z" fill="#F2A900"/>
<path fill-rule="evenodd" clip-rule="evenodd" d="M4.73542 5.51722C6.88103 5.51722 8.63101 4.68936 8.63101 3.67409C8.63101 2.65908 6.88103 1.83105 4.73542 1.83105C2.58981 1.83105 0.839844 2.659 0.839844 3.67409C0.839844 4.68927 2.58981 5.51722 4.73542 5.51722Z" fill="#F2A900"/>
<path fill-rule="evenodd" clip-rule="evenodd" d="M4.73493 5.1593C6.60007 5.1593 8.12123 4.49208 8.12123 3.67405C8.12123 2.8561 6.59999 2.18896 4.73493 2.18896C2.86988 2.18896 1.34863 2.8561 1.34863 3.67405C1.34872 4.49208 2.86988 5.1593 4.73493 5.1593Z" fill="#FFD573"/>
<path d="M5.11343 2.80167C5.27288 2.82259 5.40584 2.8568 5.51262 2.9049C5.66048 2.9718 5.75499 3.06131 5.79623 3.17326L5.19752 3.21035C5.18117 3.17081 5.15323 3.13702 5.11343 3.1089V2.80167ZM5.11343 3.49751C5.38467 3.54146 5.57613 3.59481 5.68715 3.65765C5.82451 3.7348 5.89319 3.83387 5.89319 3.95506C5.89319 4.09004 5.80672 4.20394 5.63465 4.29641C5.50119 4.36814 5.32733 4.41819 5.11343 4.44689V4.18031C5.14586 4.16939 5.1755 4.15652 5.20226 4.14161C5.27661 4.09995 5.31379 4.05142 5.31379 3.99528C5.31379 3.94515 5.2822 3.9023 5.22004 3.86605C5.19244 3.84996 5.15678 3.83548 5.11343 3.8227V3.49751ZM4.57036 4.20351V3.73437C4.517 3.72717 4.46611 3.7193 4.41767 3.71083V3.37201C4.45984 3.38853 4.51074 3.40292 4.57036 3.4152V3.02752C4.51175 3.03684 4.46103 3.05047 4.41767 3.06792V2.79482C4.46653 2.78965 4.51743 2.78584 4.57036 2.78321V2.67236H4.91298V2.78321C4.98395 2.78736 5.05068 2.79346 5.11343 2.80167V3.10882C5.06448 3.07427 4.99766 3.04836 4.91298 3.031V3.46881C4.98403 3.47787 5.05085 3.48752 5.11343 3.4976V3.8227C5.05889 3.80669 4.99207 3.79331 4.91298 3.78264V4.21927C4.98903 4.21266 5.05576 4.19962 5.11343 4.18031V4.44689C5.05008 4.45553 4.98327 4.46214 4.91298 4.46688V4.67647H4.57036V4.4723C4.51751 4.46925 4.46662 4.46493 4.41767 4.4596V4.15228C4.46526 4.17413 4.51624 4.19124 4.57036 4.20351ZM4.41767 3.71083C4.18505 3.67001 4.00891 3.61463 3.88925 3.54443C3.74537 3.45958 3.67263 3.35668 3.67263 3.23584C3.67263 3.11356 3.75427 3.01067 3.91745 2.92734C4.04947 2.86019 4.21613 2.81624 4.41767 2.79473V3.06792C4.39167 3.07842 4.3683 3.09036 4.34739 3.10357C4.29243 3.13956 4.2649 3.17936 4.2649 3.22246C4.2649 3.26184 4.28997 3.29893 4.3401 3.33264C4.36136 3.34686 4.38727 3.35999 4.41767 3.37201V3.71083ZM4.41767 4.4596C4.21325 4.43673 4.04202 4.39287 3.90458 4.32783C3.73403 4.24755 3.62572 4.13357 3.57812 3.98639L4.19631 3.95506C4.22129 4.01467 4.26905 4.06624 4.33849 4.10952C4.36364 4.12544 4.39006 4.13958 4.41767 4.15228V4.4596Z" fill="#F2A900"/>
<path d="M6.49723 4.94406C8.64875 4.94406 10.3929 4.11886 10.3929 3.10093C10.3929 2.08301 8.64875 1.25781 6.49723 1.25781C4.34571 1.25781 2.60156 2.08301 2.60156 3.10093C2.60156 4.11886 4.34571 4.94406 6.49723 4.94406Z" fill="#F2A900"/>
<path d="M10.3929 2.34326H2.60156V3.10092H10.3929V2.34326Z" fill="#F2A900"/>
<path fill-rule="evenodd" clip-rule="evenodd" d="M6.49714 4.18616C8.64275 4.18616 10.3928 3.3583 10.3928 2.34312C10.3928 1.32795 8.64275 0.5 6.49714 0.5C4.35153 0.5 2.60156 1.32786 2.60156 2.34312C2.60156 3.3583 4.35153 4.18616 6.49714 4.18616Z" fill="#F2A900"/>
<path fill-rule="evenodd" clip-rule="evenodd" d="M6.49665 3.82833C8.36171 3.82833 9.88287 3.16112 9.88287 2.34316C9.88287 1.52513 8.36171 0.85791 6.49665 0.85791C4.63151 0.85791 3.11035 1.52513 3.11035 2.34316C3.11035 3.1612 4.63151 3.82833 6.49665 3.82833Z" fill="#FFD573"/>
<path d="M6.87523 1.47071C7.03469 1.49162 7.16772 1.52575 7.27434 1.57385C7.4222 1.64075 7.51679 1.73026 7.55803 1.84221L6.95923 1.8793C6.94289 1.83967 6.91494 1.80588 6.87523 1.77776V1.47071ZM6.87523 2.16654C7.14655 2.21041 7.33785 2.26376 7.44887 2.32659C7.58631 2.40374 7.65499 2.50282 7.65499 2.62409C7.65499 2.75899 7.56844 2.87288 7.39645 2.96544C7.26299 3.03708 7.08914 3.08722 6.87523 3.11592V2.84917C6.90766 2.83833 6.9373 2.82546 6.96406 2.81056C7.03833 2.76898 7.0755 2.72028 7.0755 2.66414C7.0755 2.61401 7.04409 2.57116 6.98193 2.53491C6.95424 2.51882 6.9185 2.50434 6.87523 2.49156V2.16654ZM6.33216 2.87246V2.4034C6.27881 2.39612 6.22783 2.38824 6.17939 2.37977V2.04088C6.22156 2.05747 6.27246 2.07195 6.33216 2.08423V1.69655C6.27356 1.70587 6.22283 1.71942 6.17939 1.73695V1.46384C6.22825 1.45859 6.27915 1.45478 6.33216 1.45224V1.34131H6.6747V1.45216C6.74566 1.45623 6.81256 1.46241 6.87523 1.47062V1.77776C6.82628 1.74321 6.75938 1.71713 6.6747 1.69986V2.13767C6.74583 2.14673 6.81256 2.15647 6.87523 2.16654V2.49156C6.82069 2.47547 6.75379 2.46217 6.6747 2.4515V2.88813C6.75075 2.88152 6.81756 2.86839 6.87523 2.84909V3.11592C6.81188 3.12448 6.74499 3.13108 6.6747 3.13582V3.34533H6.33216V3.14116C6.27931 3.13819 6.22842 3.13388 6.17939 3.12846V2.82114C6.22698 2.84308 6.27796 2.86018 6.33216 2.87246ZM6.17939 2.37977C5.94677 2.33896 5.77062 2.28366 5.65097 2.21337C5.50709 2.12852 5.43435 2.02563 5.43435 1.90487C5.43435 1.78251 5.51598 1.67962 5.67917 1.5962C5.81119 1.52922 5.97784 1.48518 6.17939 1.46384V1.73695C6.15339 1.74736 6.13002 1.75922 6.1091 1.7726C6.05414 1.80851 6.02662 1.84831 6.02662 1.89149C6.02662 1.93087 6.05169 1.96788 6.10182 2.00158C6.12307 2.01581 6.14899 2.02894 6.17939 2.04088V2.37977ZM6.17939 3.12854C5.97497 3.10568 5.80382 3.0619 5.66629 2.99669C5.49574 2.9165 5.38752 2.80251 5.33984 2.65533L5.95803 2.62409C5.98301 2.68362 6.03077 2.73527 6.10021 2.77846C6.12544 2.79438 6.15178 2.80853 6.17939 2.82123V3.12854Z" fill="#F2A900"/>
<path fill-rule="evenodd" clip-rule="evenodd" d="M11.544 16.5002C13.6895 16.5002 15.4396 14.7503 15.4396 12.6046C15.4396 10.459 13.6895 8.70898 11.544 8.70898C9.39833 8.70898 7.64844 10.459 7.64844 12.6046C7.64844 14.7503 9.39833 16.5002 11.544 16.5002Z" fill="#F2A900"/>
<path fill-rule="evenodd" clip-rule="evenodd" d="M11.5445 15.7436C13.2734 15.7436 14.6837 14.3335 14.6837 12.6044C14.6837 10.8755 13.2734 9.46533 11.5445 9.46533C9.81541 9.46533 8.40527 10.8755 8.40527 12.6044C8.40527 14.3334 9.81541 15.7436 11.5445 15.7436Z" fill="#FFD573"/>
<path d="M11.9221 10.7603C12.0816 10.8044 12.2145 10.8767 12.3212 10.9782C12.4691 11.1196 12.5637 11.3087 12.6049 11.5454L12.0062 11.6239C11.99 11.5402 11.9619 11.4686 11.9222 11.4093L11.9221 10.7603ZM11.9221 12.231C12.1933 12.3238 12.3849 12.4367 12.4958 12.5693C12.6331 12.7325 12.7019 12.9419 12.7019 13.198C12.7019 13.4832 12.6155 13.7241 12.4432 13.9196C12.3098 14.0712 12.1359 14.177 11.9221 14.2378V13.6741C11.9545 13.6511 11.9841 13.6238 12.0109 13.5924C12.0854 13.5043 12.1225 13.4017 12.1225 13.283C12.1225 13.177 12.091 13.0866 12.0288 13.0098C12.0012 12.9757 11.9656 12.9451 11.9221 12.9181V12.231ZM11.3791 13.7232V12.7318C11.3257 12.7164 11.2748 12.6997 11.2263 12.6818V11.9655C11.2684 12.0006 11.3194 12.0311 11.3791 12.057V11.2375C11.3204 11.2573 11.2698 11.2858 11.2263 11.3228V10.7457C11.2752 10.7347 11.326 10.7265 11.3791 10.7211V10.4868H11.7217V10.7211C11.7926 10.7299 11.8594 10.7429 11.9221 10.7603V11.4092C11.8732 11.3361 11.8065 11.2813 11.7217 11.2448V12.1701C11.7928 12.1894 11.8596 12.2097 11.9221 12.231V12.9181C11.8677 12.8843 11.8008 12.856 11.7217 12.8335V13.7563C11.7977 13.7424 11.8644 13.7149 11.9221 13.6739V14.2377C11.8588 14.2557 11.7919 14.2698 11.7217 14.2799V14.7227H11.3791V14.2911C11.3262 14.2848 11.2752 14.2757 11.2263 14.2643V13.6147C11.2739 13.6611 11.3248 13.6972 11.3791 13.7232ZM11.2263 12.6818C10.9937 12.5955 10.8176 12.4786 10.6978 12.3301C10.554 12.1508 10.4813 11.9333 10.4813 11.678C10.4813 11.4194 10.5629 11.202 10.7261 11.0259C10.8581 10.8841 11.0248 10.7911 11.2263 10.7458V11.3229C11.2003 11.3452 11.177 11.3702 11.156 11.3985C11.101 11.4744 11.0736 11.5585 11.0736 11.6498C11.0736 11.733 11.0987 11.8113 11.1487 11.8826C11.17 11.9126 11.196 11.9404 11.2263 11.9656V12.6818ZM11.2263 14.2644C11.0218 14.2162 10.8506 14.1234 10.7132 13.9859C10.5426 13.8162 10.4343 13.5754 10.3867 13.2643L11.005 13.1981C11.03 13.3241 11.0776 13.4332 11.1471 13.5245C11.1724 13.5581 11.1988 13.5882 11.2264 13.6149V14.2644H11.2263Z" fill="#F2A900"/>
</svg>
