<svg width="21" height="30" viewBox="0 0 21 30" fill="none" xmlns="http://www.w3.org/2000/svg">
<path fill-rule="evenodd" clip-rule="evenodd" d="M7.68794 9.99026C7.63652 9.44432 7.17019 7.8502 5.91524 5.57369C4.66029 3.29734 5.66945 1.90983 7.58696 1.99144C9.50446 2.07291 9.25573 0.5 10.8166 0.5C12.3772 0.5 12.1287 2.07291 14.046 1.99144C15.9635 1.90983 16.9727 3.29734 15.7177 5.57369C14.4628 7.85004 13.9965 9.44417 13.9452 9.99026C13.4894 14.8301 8.14342 14.8301 7.68794 9.99026Z" fill="#75AD5F"/>
<path fill-rule="evenodd" clip-rule="evenodd" d="M10.7645 9.18652C16.4156 9.18652 20.9968 13.7338 20.9968 19.3434C20.9968 24.9528 21.4611 29.4999 10.7645 29.4999C0.0680957 29.4999 0.532257 24.9528 0.532257 19.3434C0.532257 13.7338 5.11345 9.18652 10.7645 9.18652Z" fill="#75AD5F"/>
<path fill-rule="evenodd" clip-rule="evenodd" d="M10.7646 9.18652C13.597 9.18652 16.1603 10.329 18.0131 12.1747C18.6484 13.4973 19.0043 14.9776 19.0043 16.5406C19.0043 22.15 19.4686 26.6973 8.772 26.6973C4.86993 26.6973 2.45435 26.0916 0.958412 25.0503C0.466685 23.4239 0.532197 21.4591 0.532197 19.3434C0.532352 13.7338 5.11355 9.18652 10.7646 9.18652Z" fill="#90C67B"/>
<path fill-rule="evenodd" clip-rule="evenodd" d="M6.585 7.55518H14.9434C15.2629 7.55518 15.5245 7.81676 15.5245 8.13627C15.5245 8.45593 15.2629 8.71751 14.9434 8.71751H6.585C6.26533 8.71751 6.00391 8.45577 6.00391 8.13627C6.00391 7.81661 6.26533 7.55518 6.585 7.55518Z" fill="#FFD573"/>
<path fill-rule="evenodd" clip-rule="evenodd" d="M6.585 8.71729H14.9434C15.2629 8.71729 15.5245 8.97872 15.5245 9.29838C15.5245 9.61788 15.2629 9.87946 14.9434 9.87946H6.585C6.26533 9.87946 6.00391 9.61788 6.00391 9.29838C6.00391 8.97856 6.26533 8.71729 6.585 8.71729Z" fill="#FFD573"/>
<path d="M11.868 13.9561C12.3339 14.0849 12.7222 14.296 13.0339 14.5926C13.4659 15.0055 13.742 15.558 13.8624 16.2495L12.1135 16.4782C12.066 16.2338 11.9842 16.0251 11.868 15.8515V13.9561ZM11.868 18.2519C12.6602 18.5226 13.2196 18.8523 13.5438 19.2398C13.9451 19.7163 14.1455 20.3276 14.1455 21.0757C14.1455 21.9088 13.893 22.612 13.3905 23.1832C13.0006 23.6257 12.493 23.9348 11.868 24.1126V22.4662C11.9628 22.3988 12.0494 22.3192 12.1276 22.2273C12.3446 21.9701 12.4533 21.6704 12.4533 21.3235C12.4533 21.0142 12.3612 20.7501 12.1795 20.5259C12.0988 20.4263 11.9949 20.3369 11.8679 20.2583L11.868 18.2519ZM10.282 22.6099V19.7142C10.1262 19.6694 9.97747 19.6206 9.83592 19.5683V17.4764C9.95904 17.5789 10.1077 17.668 10.282 17.7436V15.3504C10.1108 15.4079 9.96261 15.4914 9.83592 15.5993V13.9137C9.97856 13.8818 10.1272 13.8579 10.282 13.8421V13.1577H11.2826V13.8421C11.4897 13.8675 11.6848 13.9054 11.868 13.9561V15.8515C11.7251 15.638 11.5301 15.478 11.2826 15.3713V18.0737C11.4901 18.1298 11.6853 18.1893 11.868 18.2517V20.2581C11.709 20.1593 11.5137 20.0767 11.2826 20.0112V22.7065C11.5045 22.6656 11.6994 22.5854 11.868 22.466V24.1125C11.6831 24.1651 11.488 24.2062 11.2826 24.2357V25.5293H10.282V24.2687C10.1277 24.25 9.97902 24.2238 9.83592 24.1901V22.2932C9.97469 22.4282 10.1237 22.5338 10.282 22.6099ZM9.83592 19.5681C9.15648 19.3162 8.64184 18.9747 8.29244 18.5412C7.87242 18.0171 7.65993 17.3822 7.65993 16.6364C7.65993 15.881 7.89828 15.246 8.37499 14.7317C8.76062 14.3176 9.24724 14.0458 9.83592 13.9137V15.5993C9.75988 15.6641 9.69173 15.7375 9.63071 15.8197C9.47011 16.0418 9.38988 16.2871 9.38988 16.5538C9.38988 16.7968 9.46314 17.0259 9.60949 17.2336C9.67175 17.3214 9.74718 17.4024 9.83592 17.4762V19.5681ZM9.83592 24.1904C9.23888 24.0499 8.73894 23.7787 8.33735 23.377C7.83928 22.8814 7.52302 22.1781 7.38379 21.2694L9.18932 21.0758C9.26242 21.444 9.40181 21.7627 9.60469 22.0294C9.67826 22.1273 9.75538 22.2153 9.83592 22.2935V24.1904Z" fill="white"/>
<path d="M13.9883 9.42188C15.5437 11.2623 16.31 13.5101 15.6459 17.0352" stroke="#FFD573" stroke-width="4.7999" stroke-miterlimit="22.9256" stroke-linecap="round" stroke-linejoin="round"/>
<path d="M13.9883 9.42188C16.1383 10.5097 17.7206 12.2809 18.4838 15.7858" stroke="#FFD573" stroke-width="4.7999" stroke-miterlimit="22.9256" stroke-linecap="round" stroke-linejoin="round"/>
<path fill-rule="evenodd" clip-rule="evenodd" d="M6.32597 6.34822C6.19959 6.0998 6.06284 5.84147 5.91524 5.57369C4.66029 3.29734 5.66945 1.90982 7.58696 1.99144C9.50446 2.0729 9.25573 0.5 10.8166 0.5C12.3772 0.5 12.1287 2.0729 14.046 1.99144C14.4182 1.97549 14.756 2.01529 15.0498 2.10589C14.8071 2.81878 14.6799 3.33993 14.5466 3.67245C13.3704 6.60377 9.27618 7.39734 6.32597 6.34822Z" fill="#90C67B"/>
</svg>
