<svg width="38" height="39" viewBox="0 0 38 39" fill="none" xmlns="http://www.w3.org/2000/svg">
<path fill-rule="evenodd" clip-rule="evenodd" d="M4.45472 24.5674H9.30381C10.2682 24.5674 11.1932 24.9505 11.8751 25.6324C12.5571 26.3144 12.9402 27.2393 12.9402 28.2037V37.6819H0.818359V28.2037C0.818359 27.2393 1.20148 26.3144 1.88343 25.6324C2.56538 24.9505 3.4903 24.5674 4.45472 24.5674Z" fill="black" stroke="black" stroke-linecap="round" stroke-linejoin="round"/>
<path fill-rule="evenodd" clip-rule="evenodd" d="M16.5768 19.4526H21.4241C22.3885 19.4526 23.3134 19.8358 23.9954 20.5177C24.6773 21.1997 25.0604 22.1246 25.0604 23.089V37.6817H12.9404V23.089C12.9404 22.1246 13.3235 21.1997 14.0055 20.5177C14.6874 19.8358 15.6124 19.4526 16.5768 19.4526Z" fill="#EBEBEB" stroke="black" stroke-linecap="round" stroke-linejoin="round"/>
<path fill-rule="evenodd" clip-rule="evenodd" d="M28.6969 14.3364H33.546C34.5104 14.3364 35.4353 14.7195 36.1173 15.4015C36.7992 16.0834 37.1824 17.0084 37.1824 17.9728V37.6819H25.0605V17.9728C25.0605 17.0084 25.4437 16.0834 26.1256 15.4015C26.8076 14.7195 27.7325 14.3364 28.6969 14.3364Z" fill="#E60000" stroke="black" stroke-linecap="round" stroke-linejoin="round"/>
<path d="M0.818359 17.0763H6.92745L9.63654 11.909H17.3584L20.9802 6.19629" stroke="black" stroke-width="1.5" stroke-linecap="round" stroke-linejoin="round"/>
<path fill-rule="evenodd" clip-rule="evenodd" d="M30.7691 1.62742C30.9636 1.21469 31.2782 1.21469 31.4764 1.62742L32.7273 4.25469L35.5509 4.65105C36.0054 4.71287 36.1073 5.02378 35.78 5.3456L33.72 7.36378L34.2254 10.2365C34.3018 10.6874 34.04 10.8729 33.64 10.6547L31.1218 9.28378L28.6054 10.6547C28.2054 10.8729 27.9418 10.6874 28.0182 10.2365L28.5254 7.36378L26.4636 5.3456C26.1364 5.02378 26.24 4.71287 26.6927 4.65105L29.5164 4.25469L30.7691 1.62742Z" fill="#FCE5E5" stroke="black" stroke-linecap="round" stroke-linejoin="round"/>
</svg>
