<svg width="40" height="40" viewBox="0 0 40 40" fill="none" xmlns="http://www.w3.org/2000/svg">
<path d="M0 20C0 8.95431 8.95431 0 20 0C31.0457 0 40 8.95431 40 20C40 31.0457 31.0457 40 20 40C8.95431 40 0 31.0457 0 20Z" fill="#F98A23" fill-opacity="0.14"/>
<path fill-rule="evenodd" clip-rule="evenodd" d="M31.6917 21.3253L31.3203 20.8286C30.9187 20.2877 30.9087 19.5549 31.3052 19.0042L31.6666 18.5025C32.2186 17.7354 31.9627 16.6682 31.1145 16.2207L30.5624 15.9306C29.9601 15.6158 29.6289 14.9568 29.7443 14.2929L29.8497 13.688C30.0103 12.7635 29.3026 11.9078 28.344 11.8685L27.7166 11.8439C27.0341 11.8144 26.4418 11.3619 26.2511 10.7177L26.0754 10.1276C25.8094 9.22272 24.7956 8.75553 23.9123 9.12928L23.3351 9.37025C22.7077 9.63581 21.975 9.47844 21.5182 8.97683L21.1017 8.51948C20.4643 7.82116 19.345 7.82607 18.7126 8.53915L18.3011 9.00142C17.8494 9.50795 17.1216 9.67515 16.4892 9.41943L15.907 9.18338C15.0187 8.82438 14.0149 9.31124 13.7589 10.2161L13.5933 10.8112C13.4126 11.4603 12.8304 11.9226 12.1478 11.957L11.5205 11.9914C10.5619 12.0455 9.86924 12.911 10.0449 13.8356L10.1603 14.4405C10.2858 15.0994 9.9646 15.7633 9.36734 16.0879L8.82028 16.3879C7.98211 16.8453 7.7412 17.9173 8.30834 18.6747L8.67974 19.1714C9.08126 19.7123 9.0913 20.4451 8.6948 20.9958L8.33344 21.4975C7.78135 22.2646 8.03732 23.3318 8.88552 23.7793L9.43761 24.0695C10.0399 24.3842 10.3711 25.0432 10.2557 25.7071L10.1503 26.312C9.98969 27.2365 10.6974 28.0922 11.656 28.1315L12.2834 28.1561C12.9659 28.1856 13.5582 28.6381 13.7489 29.2823L13.9246 29.8724C14.1906 30.7773 15.2044 31.2445 16.0877 30.8707L16.6649 30.6297C17.2923 30.3642 18.025 30.5216 18.4818 31.0232L18.8983 31.4805C19.5408 32.1788 20.66 32.1739 21.2874 31.4609L21.6989 30.9986C22.1506 30.4921 22.8784 30.3248 23.5108 30.5806L24.093 30.8166C24.9813 31.1756 25.9851 30.6888 26.2411 29.7839L26.4067 29.1888C26.5874 28.5397 27.1696 28.0774 27.8522 28.043L28.4795 28.0086C29.4381 27.9545 30.1308 27.089 29.9551 26.1644L29.8397 25.5595C29.7142 24.9006 30.0354 24.2367 30.6327 23.9121L31.1797 23.6121C32.0179 23.1597 32.2588 22.0876 31.6917 21.3253ZM16.7455 18.9635C17.311 18.9635 17.7694 18.5143 17.7694 17.9603C17.7694 17.4062 17.311 16.957 16.7455 16.957C16.1801 16.957 15.7217 17.4062 15.7217 17.9603C15.7217 18.5143 16.1801 18.9635 16.7455 18.9635ZM23.25 23.0368C23.8155 23.0368 24.2739 22.5876 24.2739 22.0336C24.2739 21.4795 23.8155 21.0304 23.25 21.0304C22.6845 21.0304 22.2261 21.4795 22.2261 22.0336C22.2261 22.5876 22.6845 23.0368 23.25 23.0368ZM16.7402 15.5429C15.375 15.5429 14.2709 16.6248 14.2709 17.9625C14.2709 19.2952 15.375 20.382 16.7402 20.382C18.1054 20.382 19.2095 19.3001 19.2095 17.9625C19.2095 16.6248 18.1054 15.5429 16.7402 15.5429ZM17.217 24.2028C17.0062 24.4536 16.6248 24.488 16.3688 24.2815C16.1129 24.0749 16.0777 23.7012 16.2885 23.4504L22.768 15.8033C22.9788 15.5525 23.3602 15.518 23.6162 15.7246C23.8722 15.9311 23.9073 16.3049 23.6965 16.5557L17.217 24.2028ZM20.7803 22.0358C20.7803 23.3734 21.8844 24.4553 23.2496 24.4553C24.6148 24.4553 25.7189 23.3734 25.7189 22.0358C25.7189 20.6981 24.6148 19.6162 23.2496 19.6162C21.8844 19.6162 20.7803 20.6981 20.7803 22.0358Z" fill="#F98A23"/>
</svg>
