<svg width="103" height="165" viewBox="0 0 103 165" fill="none" xmlns="http://www.w3.org/2000/svg">
<path d="M36.5345 73.4724L20.0039 52.2253C20.0039 52.2253 20.3825 48.3728 31.0543 48.7445C41.7264 49.1167 57.1799 46.2307 67.1707 46.0035C78.7248 45.7411 90.1851 47.9084 90.1851 47.9084L72.9094 73.4724H36.5345Z" fill="#BBBDBF"/>
<path d="M89.8914 21.0931C79.4644 39.0379 69.3116 57.1954 63.6281 76.3855C54.374 73.6433 45.1343 70.9011 35.8027 68.1489C40.597 48.7625 42.0596 29.1275 46.1924 8.51221C61.4586 10.9334 75.7732 15.2343 89.8914 21.0931Z" fill="#8BC543" stroke="#006738" stroke-width="9.5702" stroke-miterlimit="10"/>
<path d="M61.9938 31.9223C70.2718 34.2935 74.4782 41.3588 71.6414 47.2359C68.7837 53.1435 61.5099 56.4088 54.9339 54.5093C48.391 52.5887 43.7432 45.9868 44.7338 39.6399C45.7468 33.3232 53.71 29.6026 61.9938 31.9223Z" fill="#006738"/>
<path d="M35.8027 68.1487C38.2864 68.8815 40.7579 69.6105 43.2267 70.343C44.3946 66.2629 41.8533 61.9505 37.5254 60.7163C37.0099 63.2034 36.4425 65.6814 35.8027 68.1487Z" fill="#006738"/>
<path d="M55.4293 39.8811C54.3674 39.6695 53.6331 40.3337 53.2346 41.8558C52.8289 43.3878 53.1061 44.2807 54.0467 44.5423C54.6244 44.7001 55.1105 44.5743 55.5052 44.1549C55.9108 43.7374 56.4896 42.8357 57.2736 41.4463C58.0544 40.0584 58.9634 39.1269 60.0043 38.6633C61.0414 38.2019 62.2322 38.1577 63.5503 38.5435C65.083 38.9938 66.0648 39.9017 66.4602 41.2388C66.8629 42.5749 66.7649 43.9387 66.2154 45.3392C64.8829 48.7143 62.6798 50.1918 59.5765 49.8139C59.8 48.8417 60.0272 47.8713 60.2525 46.8998C61.9104 47.1529 63.0592 46.3812 63.7249 44.5758C64.3498 42.8841 63.9659 41.8245 62.5578 41.4135C61.9367 41.2331 61.4036 41.3052 60.9621 41.6358C60.5221 41.9633 59.8636 42.8456 59.0267 44.2811C58.1871 45.7136 57.317 46.6706 56.413 47.1548C55.5067 47.6368 54.5447 47.7317 53.4973 47.4412C52.3836 47.1263 51.5398 46.4216 50.9686 45.3201C50.3956 44.2205 50.2945 42.8227 50.6991 41.1267C51.486 37.7604 53.3231 36.3344 56.124 36.9162C55.891 37.9045 55.6607 38.8928 55.4293 39.8811Z" fill="#8BC543"/>
<path d="M51.3921 39.7083C51.1686 40.6295 50.9441 41.5503 50.7248 42.4676C49.7358 42.2042 48.7425 41.9434 47.7432 41.6852C47.9411 40.7625 48.1393 39.8402 48.3338 38.9141C49.3636 39.1779 50.3828 39.4421 51.3921 39.7083Z" fill="#8BC543"/>
<path d="M69.1195 44.7837C68.7478 45.6653 68.3798 46.5464 68.0153 47.4276C67.0484 47.1332 66.0856 46.845 65.124 46.559C65.4626 45.6672 65.8065 44.7761 66.155 43.8843C67.1402 44.1817 68.1278 44.4802 69.1195 44.7837Z" fill="#8BC543"/>
<path d="M63.1915 76.2565C63.9438 73.8071 64.7502 71.3722 65.6074 68.953C61.4235 67.71 57.0216 70 55.8145 74.069C58.2715 74.7981 60.7311 75.5278 63.1915 76.2565Z" fill="#006738"/>
<path d="M89.2171 20.8163C85.4542 19.269 81.6891 17.8365 77.8964 16.5181C76.0636 20.679 79.3544 25.5301 85.3135 27.7419C86.616 25.4306 87.9265 23.1223 89.2171 20.8163Z" fill="#006738"/>
<path d="M46.1929 8.51172C45.6915 11.151 45.2149 13.7704 44.7627 16.3734C51.0608 17.5154 56.8738 15.2178 58.1748 10.8307C54.2338 9.92705 50.2383 9.15113 46.1929 8.51172Z" fill="#006738"/>
<path d="M53.5054 59.3723C54.9718 59.802 55.8023 61.2722 55.3772 62.6586C54.9486 64.0434 53.4597 64.83 52.0363 64.4106C50.6126 63.9923 49.773 62.5251 50.1528 61.1277C50.539 59.7318 52.0394 58.946 53.5054 59.3723Z" fill="#006738"/>
<path d="M65.4926 21.7314C67.5256 22.3121 68.6969 23.9649 68.1467 25.3852C67.5892 26.8028 65.5982 27.4811 63.6746 26.9416C61.7586 26.3987 60.5401 24.8091 60.9808 23.3518C61.4338 21.9007 63.4599 21.1518 65.4926 21.7314Z" fill="#006738"/>
<path d="M83.2208 11.1906C75.4758 30.4451 68.0266 49.8704 65.1498 69.6782C55.599 68.288 46.0604 66.8959 36.4326 65.5107C38.3997 45.6378 37.035 25.9948 38.1736 5.00049C53.6266 5.20791 68.4094 7.41707 83.2208 11.1906Z" fill="#8BC543" stroke="#006738" stroke-width="9.5702" stroke-miterlimit="10"/>
<path d="M57.162 25.9075C65.6974 27.0655 70.8673 33.4585 68.9025 39.6788C66.9233 45.9368 60.1871 50.2114 53.4117 49.2708C46.6607 48.3076 41.1133 42.4385 41.1843 36.0154C41.2819 29.6205 48.6304 24.7976 57.162 25.9075Z" fill="#006738"/>
<path d="M36.4326 65.511C38.9922 65.8797 41.5434 66.2484 44.0926 66.6175C44.663 62.4158 41.53 58.5114 37.0717 57.9082C36.9176 60.4415 36.7121 62.9755 36.4326 65.511Z" fill="#006738"/>
<path d="M51.8047 34.7207C50.7245 34.665 50.0912 35.4283 49.9131 36.9924C49.7324 38.5678 50.135 39.4086 51.105 39.534C51.6971 39.6068 52.1589 39.4112 52.4925 38.9396C52.8349 38.4706 53.2757 37.4949 53.8503 36.0068C54.4268 34.5228 55.1943 33.4708 56.1578 32.8631C57.1194 32.2576 58.2926 32.0437 59.6469 32.237C61.23 32.4604 62.3323 33.2219 62.9157 34.4866C63.5059 35.7513 63.6043 37.1151 63.2615 38.5789C62.4253 42.1119 60.456 43.8871 57.3306 43.9588C57.4134 42.9663 57.4961 41.975 57.5815 40.9798C59.2607 40.9928 60.2879 40.064 60.6867 38.1808C61.0623 36.4197 60.5323 35.4241 59.0819 35.2183C58.439 35.1294 57.9201 35.2762 57.5323 35.6663C57.1426 36.0548 56.618 37.0236 55.9954 38.5606C55.3701 40.0998 54.6464 41.1724 53.8186 41.7805C52.9916 42.3883 52.0536 42.6186 50.975 42.4802C49.8273 42.3296 48.8916 41.7531 48.1695 40.745C47.4443 39.738 47.1469 38.37 47.3032 36.6317C47.5976 33.1894 49.2112 31.5137 52.0677 31.6876C51.9785 32.7014 51.8889 33.7126 51.8047 34.7207Z" fill="#8BC543"/>
<path d="M47.7842 35.1309C47.695 36.0758 47.6069 37.0164 47.5173 37.9566C46.505 37.8369 45.4854 37.7218 44.459 37.6089C44.5196 36.669 44.5837 35.7269 44.6473 34.7832C45.6982 34.8961 46.7448 35.012 47.7842 35.1309Z" fill="#8BC543"/>
<path d="M66.0572 37.6142C65.8147 38.54 65.576 39.4638 65.3438 40.3892C64.3467 40.2374 63.3501 40.0895 62.3564 39.9416C62.5654 39.0112 62.777 38.0809 62.9959 37.1494C64.0131 37.3015 65.0327 37.4544 66.0572 37.6142Z" fill="#8BC543"/>
<path d="M64.6973 69.6123C65.0942 67.0802 65.5415 64.555 66.044 62.0381C61.7252 61.4067 57.6954 64.3022 57.085 68.5032C59.6216 68.8722 62.1625 69.241 64.6973 69.6123Z" fill="#006738"/>
<path d="M82.5169 11.0148C78.5713 10.0235 74.6395 9.14386 70.6971 8.38281C69.4781 12.7664 73.4309 17.0933 79.6462 18.4266C80.6044 15.9521 81.569 13.4806 82.5169 11.0148Z" fill="#006738"/>
<path d="M38.1739 5C38.0511 7.68462 37.9554 10.3445 37.8818 12.9845C44.2802 13.2129 49.7017 10.1081 50.3632 5.57994C46.3334 5.25012 42.2677 5.05224 38.1739 5Z" fill="#006738"/>
<path d="M52.6949 54.2883C54.2083 54.5034 55.2419 55.8394 55.017 57.2726C54.7912 58.7032 53.4335 59.6957 51.961 59.4845C50.4945 59.2759 49.4529 57.9433 49.6275 56.5059C49.8105 55.0707 51.1824 54.0782 52.6949 54.2883Z" fill="#006738"/>
<path d="M59.1635 15.3189C61.261 15.6019 62.6569 17.0709 62.3137 18.5541C61.9694 20.0362 60.0927 20.9955 58.1108 20.7336C56.1369 20.4716 54.704 19.0712 54.9321 17.5685C55.1719 16.0674 57.0695 15.0372 59.1635 15.3189Z" fill="#006738"/>
<path opacity="0.3" d="M102.999 158.991C102.999 162.297 78.9659 164.974 52.4659 164.974C25.9658 164.974 7.03125 162.297 7.03125 158.991C7.03125 155.69 25.9658 153.011 52.4659 153.011C78.9659 153.011 102.999 155.69 102.999 158.991Z" fill="#221F1F"/>
<path d="M36.5355 73.4723L20.0049 52.2252C20.0049 52.2252 20.3835 45.6492 31.0553 46.0205C41.7274 46.3927 53.1034 50.9841 63.0862 51.4508C77.3897 52.1188 90.186 47.9083 90.186 47.9083L72.9104 73.4723H36.5355Z" fill="#E6E6E7"/>
<path d="M93.9174 112.534C88.6061 99.4765 80.439 85.8307 72.9098 73.4722H36.5356C29.0891 85.8307 21.577 99.6485 15.6946 112.534C3.14573 140.028 10.2971 149.09 25.0235 155.586C35.9473 160.404 73.6632 160.404 84.5874 155.586C99.3156 149.09 103.029 134.936 93.9174 112.534Z" fill="#E6E6E7"/>
<path d="M61.3637 109.622C61.1441 107.006 58.7325 105.689 54.1117 105.676C49.4798 105.658 47.1555 106.889 47.1471 109.356C47.1441 110.869 47.8815 111.97 49.3738 112.653C50.8647 113.344 53.865 114.129 58.3729 115.004C62.8827 115.886 66.1896 117.34 68.2951 119.377C70.4009 121.408 71.4582 124.052 71.4422 127.3C71.43 131.089 69.7253 134.012 66.3277 136.063C62.938 138.116 59.052 139.131 54.6767 139.119C44.1148 139.08 38.1065 135.016 36.6572 126.914L45.4054 126.238C46.0357 130.488 49.1554 132.621 54.7557 132.639C60.006 132.658 62.6349 130.889 62.6479 127.33C62.6505 125.754 62.0226 124.577 60.7468 123.804C59.4779 123.027 56.489 122.173 51.79 121.238C47.0945 120.3 43.698 118.889 41.6166 116.996C39.5382 115.099 38.5011 112.747 38.5091 109.939C38.5209 106.922 39.8734 104.369 42.5626 102.29C45.2556 100.209 49.1637 99.1788 54.2863 99.1975C64.4365 99.2326 69.747 102.613 70.2118 109.337L61.3637 109.622Z" fill="#E2A540"/>
<path d="M58.8206 100.039L50.4941 100.007L50.5159 92.4316L58.8489 92.4591L58.8206 100.039Z" fill="#E2A540"/>
<path d="M58.6712 145.261L50.3379 145.229L50.3596 137.652L58.6895 137.682L58.6712 145.261Z" fill="#E2A540"/>
<path d="M76.2768 74.2596C76.2768 74.9852 75.549 75.5743 74.6526 75.5743H34.2703C33.3716 75.5743 32.6445 74.9852 32.6445 74.2596V73.1794C32.6445 72.4538 33.3713 71.8647 34.2703 71.8647H74.653C75.5494 71.8647 76.2772 72.4538 76.2772 73.1794L76.2768 74.2596Z" fill="#744C29"/>
<path d="M65.0633 153.377C71.785 158.217 83.7821 154.102 88.2256 150.953C94.402 146.572 97.2308 137.841 96.5201 131.595C95.8067 125.343 94.8279 121.113 92.3073 115.296C91.4112 113.229 95.3709 121.602 90.5583 132.886C86.9678 141.308 76.58 143.455 69.6933 144.232C64.8757 144.776 58.3748 148.562 65.0633 153.377Z" fill="#D0D2D3"/>
<path d="M60.9736 70.7434C60.9736 70.7434 73.6937 66.1215 79.9761 59.6576C87.0699 52.3586 72.9974 70.7434 72.9974 70.7434H60.9736Z" fill="#D0D2D3"/>
<path d="M24.8799 53.7705C24.8799 53.7705 25.1205 53.9562 25.5101 54.3035C25.9029 54.6494 26.4454 55.1572 27.07 55.7864C28.3183 57.0457 29.8576 58.8206 31.2767 60.6862C32.6962 62.5519 33.9953 64.509 34.8745 66.0494C35.3134 66.8196 35.6573 67.4785 35.8849 67.9493C36.114 68.4191 36.2284 68.7001 36.2284 68.7001C36.2284 68.7001 35.9878 68.5148 35.5974 68.1678C35.2043 67.822 34.661 67.3153 34.0364 66.6854C32.689 65.3269 31.3087 63.7293 29.8316 61.784C28.4136 59.9172 27.1161 57.9597 26.2365 56.4197C25.7965 55.6499 25.453 54.991 25.2249 54.5205C24.9943 54.0515 24.8799 53.7705 24.8799 53.7705Z" fill="#F7F7F7"/>
<path d="M37.5898 78.2334C37.5898 78.2334 37.3869 78.8522 36.9908 79.9137C36.5943 80.9756 36.0136 82.4855 35.2613 84.268C33.7846 87.8494 31.6196 92.5243 29.2961 97.1196C26.9683 101.713 24.4824 106.225 22.468 109.533C21.4767 111.196 20.6016 112.556 19.9794 113.504C19.3579 114.452 18.9785 114.981 18.9785 114.981C18.9785 114.981 19.1806 114.362 19.5771 113.3C19.9725 112.238 20.5521 110.727 21.3047 108.945C22.7799 105.363 24.9471 100.689 27.2718 96.0947C29.6011 91.5029 32.0894 86.9911 34.1029 83.6823C35.095 82.0203 35.9682 80.6591 36.5893 79.7113C37.2112 78.763 37.5898 78.2334 37.5898 78.2334Z" fill="#F7F7F7"/>
<path d="M35.8082 146.921C33.0728 156.155 23.3703 161.425 14.1344 158.691C4.8997 155.957 -0.370801 146.253 2.36377 137.019C5.09835 127.783 14.8017 122.513 24.0368 125.248C33.2718 127.981 38.542 137.685 35.8082 146.921Z" fill="#E8AF2E"/>
<path d="M32.7856 146.025C30.5452 153.592 22.595 157.91 15.0296 155.669C7.46338 153.429 3.14495 145.479 5.38576 137.913C7.62504 130.346 15.5764 126.027 23.1414 128.268C30.7084 130.509 35.0268 138.459 32.7856 146.025Z" fill="#F9CA35"/>
<path d="M23.1787 139.087C23.4052 137.993 22.5812 137.165 20.6973 136.601C18.8096 136.035 17.7119 136.256 17.4103 137.262C17.2272 137.879 17.3939 138.417 17.9208 138.876C18.4454 139.338 19.5756 140.02 21.3085 140.923C23.0434 141.827 24.2162 142.819 24.8289 143.905C25.4428 144.988 25.5537 146.194 25.1549 147.517C24.6932 149.062 23.6446 150.049 22.0108 150.476C20.3793 150.903 18.6708 150.849 16.8879 150.315C12.5828 149.023 10.6219 146.639 11.01 143.158L14.6604 143.939C14.4046 145.749 15.4207 146.997 17.7031 147.681C19.8421 148.322 21.1289 147.918 21.564 146.468C21.7546 145.824 21.641 145.268 21.214 144.799C20.7907 144.328 19.6739 143.619 17.8697 142.671C16.0681 141.721 14.8526 140.734 14.2315 139.711C13.6127 138.686 13.4731 137.601 13.8159 136.457C14.1857 135.226 15.0463 134.348 16.3938 133.825C17.7446 133.301 19.4635 133.353 21.5514 133.979C25.6883 135.219 27.4464 137.24 26.8246 140.04L23.1787 139.087Z" fill="#C38728"/>
<path d="M20.8353 130.767L19.9082 133.855L23.3031 134.874L24.2301 131.786L20.8353 130.767Z" fill="#C38728"/>
<path d="M15.316 149.193L14.3887 152.282L17.7842 153.301L18.7116 150.213L15.316 149.193Z" fill="#C38728"/>
<path d="M5.60347 138.235C5.60347 136.866 6.20933 134.781 6.66077 134.33C7.10344 133.887 9.19555 133.273 10.564 133.273C9.19555 133.273 7.18123 132.737 6.66077 132.217C6.11477 131.671 5.60347 129.681 5.60347 128.311C5.60347 129.715 5.07386 131.687 4.47868 132.283C3.86329 132.898 1.97707 133.272 0.642578 133.272C2.01215 133.272 4.03258 133.815 4.54617 134.33C5.06815 134.851 5.60347 136.866 5.60347 138.235Z" fill="white"/>
<path d="M8.91688 139.004C8.91688 138.517 9.13193 137.775 9.29283 137.614C9.44992 137.456 10.1946 137.238 10.6826 137.238C10.195 137.238 9.47852 137.047 9.29283 136.861C9.09914 136.667 8.91688 135.96 8.91688 135.472C8.91688 135.971 8.72777 136.673 8.51615 136.886C8.29806 137.104 7.62547 137.238 7.15039 137.238C7.63805 137.238 8.3583 137.431 8.54017 137.614C8.72586 137.799 8.91688 138.517 8.91688 139.004Z" fill="white"/>
<path d="M2.45166 142.741C2.45166 142.064 2.75021 141.034 2.97402 140.812C3.19212 140.593 4.22616 140.289 4.9018 140.289C4.22654 140.289 3.23101 140.025 2.97402 139.768C2.70445 139.498 2.45166 138.515 2.45166 137.838C2.45166 138.532 2.1901 139.507 1.89613 139.801C1.59225 140.104 0.660766 140.289 0 140.289C0.677543 140.289 1.67575 140.557 1.92968 140.812C2.18705 141.069 2.45166 142.064 2.45166 142.741Z" fill="white"/>
</svg>
