<svg width="106" height="232" viewBox="0 0 106 232" fill="none" xmlns="http://www.w3.org/2000/svg">
<path d="M51.6249 67.9594C56.2027 84.6098 71.2831 89.2586 71.2831 89.2586C77.2622 87.9901 81.0515 86.1939 84.8133 84.1221C83.6988 81.453 83.216 78.7418 82.5969 75.2196C77.043 76.7649 72.2466 77.5907 72.2466 77.5907C60.5232 72.157 53.412 46.1465 53.412 46.1465C46.4435 52.7608 51.6249 67.9594 51.6249 67.9594Z" fill="#007FE9"/>
<path d="M12.1896 201.752L7.22949 208.387C7.22949 208.387 8.13535 211.352 11.8087 213.638L17.7413 206.004L12.1896 201.752Z" fill="#FBA691"/>
<path d="M10.9848 211.583C10.9848 211.583 13.3053 211.084 14.0994 211.886C14.8936 212.687 16.8859 223.603 18.7503 225.991C20.6147 228.379 18.7376 229.648 17.59 230.131C16.4424 230.615 0 214.188 0 214.188C0 214.188 4.06475 208.573 6.02474 207.483C7.98544 206.393 8.90465 210.428 10.9848 211.583Z" fill="#FFAA01"/>
<path d="M11.2916 217.954C11.1883 217.914 11.0997 217.833 11.0534 217.72C10.9634 217.501 11.0646 217.248 11.2782 217.153C11.3499 217.121 13.0485 216.379 14.4062 216.63C16.213 216.962 16.6621 218.514 16.6803 218.58C16.7436 218.808 16.6136 219.049 16.3901 219.116C16.1666 219.184 15.934 219.054 15.8708 218.825C15.8581 218.782 15.5341 217.718 14.2481 217.48C13.142 217.276 11.6191 217.939 11.6036 217.946C11.5003 217.991 11.3886 217.99 11.2916 217.954Z" fill="white"/>
<path d="M11.0204 216.207C10.9171 216.168 10.8292 216.087 10.7828 215.974C10.6929 215.755 10.7941 215.501 11.0084 215.406C11.0801 215.374 12.7787 214.632 14.1364 214.882C15.9453 215.214 16.3923 216.766 16.4105 216.832C16.4738 217.061 16.3438 217.301 16.1203 217.369C15.8968 217.437 15.6642 217.307 15.601 217.077C15.5883 217.035 15.2636 215.971 13.9783 215.733C12.8672 215.528 11.3493 216.192 11.3338 216.199C11.2291 216.245 11.1181 216.245 11.0204 216.207Z" fill="white"/>
<path d="M12.0504 219.791C11.9471 219.752 11.8592 219.671 11.8128 219.558C11.7236 219.339 11.8241 219.084 12.0384 218.99C12.1101 218.958 13.8087 218.216 15.1664 218.467C16.9753 218.799 17.4222 220.351 17.4405 220.417C17.5038 220.645 17.3737 220.886 17.1503 220.954C16.9268 221.021 16.6942 220.891 16.6309 220.662C16.6183 220.62 16.2936 219.555 15.0083 219.318C13.8972 219.113 12.3792 219.777 12.3645 219.784C12.2598 219.828 12.148 219.829 12.0504 219.791Z" fill="white"/>
<path d="M42.6162 213.145L43.3682 221.395C43.3682 221.395 46.026 222.994 50.2847 222.235L49.5869 212.591L42.6162 213.145Z" fill="#FBA691"/>
<path d="M48.7808 221.075C48.7808 221.075 50.232 219.066 51.4084 219.135C52.5848 219.203 61.753 226.279 64.8677 226.83C67.9816 227.38 67.4116 229.675 66.8593 230.852C66.3069 232.029 42.1988 231.354 42.1988 231.354C42.1988 231.354 41.3105 223.572 42.0695 221.357C42.8285 219.142 46.3591 221.631 48.7808 221.075Z" fill="#FFAA01"/>
<path d="M54.7486 226.33C54.6432 226.366 54.5237 226.359 54.4162 226.302C54.2075 226.19 54.1231 225.93 54.2271 225.721C54.2623 225.65 55.0965 223.995 56.3017 223.322C57.9047 222.425 59.2406 223.334 59.2968 223.373C59.4915 223.508 59.5449 223.776 59.4156 223.971C59.287 224.165 59.0242 224.213 58.8295 224.077C58.793 224.052 57.8646 223.44 56.7219 224.077C55.7395 224.626 54.9903 226.108 54.9826 226.123C54.9327 226.226 54.847 226.297 54.7486 226.33Z" fill="white"/>
<path d="M53.4257 225.159C53.321 225.194 53.2015 225.187 53.0933 225.13C52.8845 225.019 52.7995 224.759 52.9042 224.549C52.9394 224.479 53.7735 222.824 54.9788 222.151C56.5839 221.253 57.9177 222.162 57.9739 222.201C58.1686 222.337 58.222 222.605 58.0927 222.799C57.9641 222.994 57.7012 223.043 57.5066 222.905C57.47 222.881 56.541 222.269 55.399 222.905C54.413 223.456 53.6674 224.936 53.6604 224.951C53.6098 225.054 53.524 225.126 53.4257 225.159Z" fill="white"/>
<path d="M56.5054 227.261C56.4007 227.296 56.2813 227.29 56.173 227.232C55.9643 227.121 55.88 226.861 55.984 226.651C56.0191 226.581 56.8533 224.926 58.0585 224.253C59.6629 223.355 60.9975 224.264 61.0537 224.303C61.2483 224.439 61.3018 224.707 61.1725 224.901C61.0438 225.096 60.781 225.144 60.5864 225.008C60.5498 224.984 59.6201 224.372 58.4788 225.008C57.4928 225.559 56.7472 227.039 56.7402 227.054C56.6903 227.156 56.6045 227.227 56.5054 227.261Z" fill="white"/>
<path d="M37.9928 123.596L32.9828 165.06C32.9828 165.06 28.4879 171.16 24.2032 178.964C20.6072 185.513 11.0244 202.51 11.0244 202.51L16.8201 206.928L48.5636 174.032L57.0143 123.191L37.9928 123.596Z" fill="#001030"/>
<path d="M18.2494 206.823C17.7287 208.13 16.7553 209.02 15.619 209.767L8.88867 204.084C9.45299 202.891 10.2253 201.859 11.1818 200.971L18.2494 206.823Z" fill="#2E3052"/>
<path d="M12.3564 125.31C12.3564 125.31 21.2955 147.288 32.9135 164.426C32.9135 164.426 34.6486 181.105 37.6157 189.985C38.9151 193.872 41.431 212.292 41.431 212.292L50.2442 211.892L47.9701 160.677L38.6466 123.583L12.3564 125.31Z" fill="#2E3052"/>
<path d="M51.0646 211.589C51.624 213.121 51.4701 214.641 51.0646 216.163L40.8647 216.448C40.4311 214.982 40.3025 213.495 40.4431 211.989L51.0646 211.589Z" fill="#524E84"/>
<path d="M53.4122 46.146C54.7411 47.8038 57.4059 64.696 57.8241 81.8447C57.8346 82.241 57.843 82.6346 57.8543 83.0288C57.8972 84.844 57.9358 86.667 57.9723 88.4906C58.0089 90.2904 58.0412 92.086 58.0714 93.8689C58.1185 96.786 58.1621 99.6582 58.1965 102.425C58.2007 102.739 58.2029 103.051 58.2071 103.364C58.2394 106.062 58.2654 108.647 58.2844 111.063C58.2865 111.379 58.2886 111.691 58.2907 112.001C58.3188 115.627 58.3357 118.837 58.3378 121.414V121.416C58.3399 121.778 58.3399 122.12 58.3399 122.456C58.3399 124.258 58.3357 125.688 58.3223 126.653C54.0531 127.802 49.7859 128.636 45.5188 129.146C45.4063 129.159 45.2925 129.174 45.1786 129.187C44.9868 129.211 44.7999 129.232 44.6101 129.253C44.563 129.258 44.5173 129.262 44.4682 129.266C43.7275 129.348 42.991 129.419 42.2481 129.479C38.5797 129.781 34.9106 129.847 31.2422 129.677C30.919 129.662 30.6006 129.645 30.2781 129.625C29.9913 129.61 29.7011 129.593 29.4102 129.571C29.2808 129.565 29.1494 129.556 29.0187 129.545C28.7735 129.528 28.5317 129.509 28.2864 129.491C22.8956 129.054 17.504 128.111 12.1153 126.651C12.0872 124.528 12.0612 120.203 12.0527 114.625C12.0527 114.319 12.0506 114.009 12.0527 113.694C12.0464 107.541 12.0703 99.9885 12.1434 92.2118C12.1497 91.5961 12.156 90.9826 12.1652 90.3642C12.1715 89.6516 12.1785 88.9348 12.187 88.2159C12.1891 88.095 12.1891 87.9727 12.1912 87.8518C12.1954 87.6839 12.1975 87.5159 12.1996 87.3459C12.2017 87.0078 12.2059 86.6677 12.2123 86.3318C12.2186 85.8384 12.2249 85.3479 12.234 84.8588C12.2383 84.4863 12.2446 84.1139 12.2488 83.7414C12.2593 83.0007 12.2727 82.26 12.2832 81.5235C12.5433 66.0846 13.0647 51.8966 14.057 48.2858C14.1498 47.952 14.2467 47.7089 14.3437 47.5648C14.4491 47.4032 14.5806 47.2416 14.7267 47.0736C14.9116 46.8628 15.1273 46.6449 15.3683 46.4257C17.0219 44.9035 19.8892 43.136 22.7979 41.4586C23.1359 41.2625 23.4782 41.0692 23.8141 40.8753C23.8654 40.8472 31.7173 38.1992 31.7672 38.1689L39.981 38.7438C39.9817 38.7466 51.4592 43.7102 53.4122 46.146Z" fill="#F73042"/>
<path d="M20.2744 68.3897C20.2744 67.9814 19.7544 67.8029 19.5077 68.1283C16.2068 72.4762 14.2152 77.2163 13.0381 80.9627C12.7366 81.9248 12.4759 82.8574 12.2503 83.7442C12.2461 84.1167 12.2398 84.4892 12.2356 84.8616C12.2271 85.3507 12.2208 85.8413 12.2138 86.3346C12.2074 86.6705 12.2032 87.0107 12.2011 87.3487C12.199 87.5188 12.1969 87.6867 12.1927 87.8547C12.1906 87.9756 12.1906 88.0978 12.1885 88.2187C12.4984 86.3409 13.0128 83.8911 13.8589 81.1953C15.0129 77.5291 16.9644 72.893 20.188 68.6462C20.2435 68.5717 20.2744 68.4817 20.2744 68.3897Z" fill="#007FE9"/>
<path d="M21.9451 113.2H21.9472C30.8161 113.16 38.3869 109.124 43.1762 105.745C48.3555 102.091 51.494 98.3882 51.5249 98.3517C51.6767 98.1711 51.6535 97.9019 51.4729 97.7501C51.2923 97.5983 51.0232 97.6215 50.8714 97.8021C50.8411 97.8387 47.7589 101.471 42.6639 105.062C37.9793 108.364 30.5813 112.308 21.943 112.346C21.7076 112.346 21.5172 112.539 21.5186 112.774C21.5193 113.01 21.7104 113.2 21.9451 113.2Z" fill="#007FE9"/>
<path d="M31.1885 116.213C38.8851 116.213 46.56 111.827 46.9085 111.625C47.1123 111.507 47.1819 111.246 47.0638 111.042C46.9458 110.838 46.6851 110.769 46.4806 110.886C46.3899 110.938 37.3595 116.096 29.3522 115.267C29.1147 115.24 28.9081 115.413 28.8842 115.648C28.8596 115.883 29.0304 116.092 29.2644 116.116C29.9039 116.183 30.5462 116.213 31.1885 116.213Z" fill="#007FE9"/>
<path d="M28.9833 52.2396C36.4002 50.1833 42.6245 43.907 42.9063 43.6196C43.0715 43.4509 43.0686 43.1811 42.9007 43.0159C42.7327 42.8508 42.4622 42.8543 42.297 43.0215C42.2239 43.096 34.8991 50.4778 26.9614 51.8187C26.7253 51.8566 26.5728 52.0787 26.6114 52.3106C26.6508 52.5432 26.8708 52.6999 27.1034 52.6606C27.7366 52.553 28.3641 52.4111 28.9833 52.2396Z" fill="#007FE9"/>
<path d="M22.7764 17.6196C22.7764 25.1188 27.3928 30.2861 34.8919 30.2861C42.391 30.2861 47.6168 24.7294 47.6168 17.231C47.6168 9.73257 43.176 4.05078 35.6776 4.05078C26.6844 4.05148 22.7764 10.1212 22.7764 17.6196Z" fill="#2E3052"/>
<path d="M22.947 19.6082C22.947 19.6082 20.3258 15.6454 21.7123 12.5905C23.1473 9.42878 22.4193 10.121 22.7763 7.74638C23.1333 5.37176 24.8635 4.39352 26.9345 4.05128C29.0055 3.70904 27.5867 1.32458 30.4581 0.468618C33.3289 -0.387342 35.6297 2.60992 37.4759 1.26695C39.322 -0.0760239 43.8569 -0.736617 45.131 1.26695C46.4051 3.27051 47.538 3.25716 48.8957 3.19321C50.5303 3.1152 52.7215 5.69292 51.2422 8.06613C49.7636 10.4393 47.273 9.49695 47.6174 11.1316C47.9617 12.7662 50.0672 15.6461 47.2442 19.3046C46.389 20.4122 22.947 19.6082 22.947 19.6082Z" fill="#2E3052"/>
<path d="M24.4619 20.8484C24.4619 20.8484 22.3782 18.0704 20.8293 20.3678C19.2804 22.6651 21.4702 29.4495 25.263 27.7931L24.4619 20.8484Z" fill="#FB876B"/>
<path d="M24.4342 25.6967C24.2944 25.6967 24.1658 25.6039 24.1257 25.4626C23.5382 23.3684 21.3681 22.5188 21.3463 22.5103C21.1812 22.4471 21.0975 22.2623 21.1608 22.0971C21.2233 21.932 21.4081 21.8483 21.5733 21.9109C21.6752 21.9495 24.066 22.8772 24.7434 25.2891C24.7912 25.4598 24.6914 25.6362 24.5214 25.6847C24.4919 25.6924 24.463 25.6967 24.4342 25.6967Z" fill="#D45C48"/>
<path d="M22.2449 24.6413C22.1858 24.6413 22.1254 24.6245 22.072 24.59C21.923 24.4938 21.8801 24.2956 21.9757 24.1473C21.9919 24.1227 22.3756 23.5366 23.1788 23.1775C23.3398 23.1051 23.5295 23.1775 23.6026 23.3391C23.675 23.5008 23.6026 23.6905 23.441 23.7622C22.8197 24.0405 22.5182 24.4895 22.5154 24.4938C22.4536 24.5893 22.3503 24.6413 22.2449 24.6413Z" fill="#D45C48"/>
<path d="M45.933 20.8484C45.933 20.8484 48.0167 18.0704 49.5655 20.3678C51.1144 22.6651 48.9246 29.4495 45.1318 27.7931L45.933 20.8484Z" fill="#FB876B"/>
<path d="M45.9609 25.6971C46.1007 25.6971 46.2293 25.6044 46.2694 25.4631C46.8569 23.3689 49.027 22.5193 49.0488 22.5108C49.2139 22.4476 49.2969 22.2628 49.2343 22.0976C49.1718 21.9325 48.9869 21.8488 48.8218 21.9114C48.7206 21.95 46.3291 22.8777 45.6517 25.2895C45.6039 25.4603 45.703 25.6367 45.8737 25.6852C45.9032 25.6929 45.932 25.6971 45.9609 25.6971Z" fill="#D45C48"/>
<path d="M48.1507 24.6413C48.2098 24.6413 48.2702 24.6245 48.3243 24.59C48.4733 24.4938 48.5162 24.2956 48.4199 24.1473C48.4037 24.1227 48.02 23.5366 47.2168 23.1775C47.0558 23.1051 46.8661 23.1775 46.7937 23.3391C46.7213 23.5008 46.7937 23.6905 46.9553 23.7622C47.5766 24.0405 47.8781 24.4895 47.8809 24.4938C47.942 24.5893 48.0453 24.6413 48.1507 24.6413Z" fill="#D45C48"/>
<path d="M40.3264 33.5474V40.6853C40.3264 40.6853 39.2125 42.3487 36.9764 42.6136C33.8484 42.984 30.459 39.6782 30.459 39.6782V34.0217L40.3264 33.5474Z" fill="#FBA691"/>
<path d="M40.3264 33.5474V36.5411C38.5006 38.5672 35.2581 39.0732 30.459 38.3648V34.0217L40.3264 33.5474Z" fill="#FB876B"/>
<path d="M23.3556 20.7215C23.383 21.1122 23.4154 21.5079 23.4547 21.9077C23.5559 22.9127 23.6916 23.945 23.8757 24.9725C23.8827 25.009 23.8876 25.0434 23.894 25.0758C24.7998 30.0513 26.8371 34.9418 31.2265 36.5096C41.1706 40.06 44.7209 31.5341 46.1419 26.5628C46.2986 26.0111 46.4405 25.3969 46.5649 24.7419C46.5698 24.7166 46.5741 24.6892 46.5811 24.659C46.7188 23.9232 46.839 23.139 46.9395 22.3322C47.0154 21.7341 47.0801 21.1277 47.137 20.5156C47.2817 19.0299 47.3759 17.5401 47.4385 16.2182C47.5832 13.197 45.7736 10.4169 42.9436 9.33187C38.8648 7.76401 32.6728 6.52224 26.8048 9.8491C24.6368 11.0768 23.2776 13.353 23.2291 15.8436C23.2038 17.2196 23.2242 18.9069 23.3556 20.7215Z" fill="#FBA691"/>
<path d="M23.3555 20.7215C23.3829 21.1123 23.4152 21.5079 23.4546 21.9078C23.5558 22.9127 23.6914 23.9451 23.8755 24.9725C23.8825 25.0091 23.8875 25.0435 23.8938 25.0758C24.7996 30.0513 26.8369 34.9418 31.2264 36.5097C41.1704 40.06 44.7207 31.5342 46.1417 26.5629C46.2984 26.0112 46.4404 25.397 46.5648 24.742C46.5697 24.7167 46.5739 24.6893 46.5809 24.6591C46.7187 23.9233 46.8388 23.139 46.9393 22.3322C47.0152 21.7342 47.0799 21.1277 47.1368 20.5156L45.647 20.9042C45.2218 23.1552 44.5823 26.4336 43.7502 27.9628C42.4466 24.7807 35.1969 27.409 35.1969 27.409C35.1969 27.409 28.7337 25.1124 26.5446 27.3949C25.5031 24.7483 24.579 20.9042 24.579 20.9042L23.3555 20.7215ZM34.9896 28.5868C40.2069 27.8714 41.5035 29.2052 41.7467 30.7506C40.3327 32.2383 38.7529 33.0957 37.3024 33.4225C35.5111 33.8294 31.8856 33.7928 29.239 31.7071C28.9726 30.5046 28.6711 26.9958 34.9896 28.5868Z" fill="#2E3052"/>
<path d="M31.8167 21.2448C31.8167 21.9651 31.4457 22.5484 30.9875 22.5484C30.5293 22.5484 30.1582 21.9644 30.1582 21.2448C30.1582 20.5244 30.5293 19.9404 30.9875 19.9404C31.4457 19.9404 31.8167 20.5244 31.8167 21.2448Z" fill="#2E3052"/>
<path d="M41.4359 21.2448C41.4359 21.9651 41.0648 22.5484 40.6066 22.5484C40.1484 22.5484 39.7773 21.9644 39.7773 21.2448C39.7773 20.5244 40.1484 19.9404 40.6066 19.9404C41.0648 19.9404 41.4359 20.5244 41.4359 21.2448Z" fill="#2E3052"/>
<path d="M42.9537 16.7699C42.9537 16.7699 40.338 15.7362 38.3232 16.6062L38.5249 17.7264C38.5249 17.7264 41.4807 17.4762 42.9706 18.0798C43.1041 17.6491 43.1238 17.2133 42.9537 16.7699Z" fill="#2E3052"/>
<path d="M27.7121 16.7699C27.7121 16.7699 30.3278 15.7362 32.3426 16.6062L32.1409 17.7264C32.1409 17.7264 29.1851 17.4762 27.6953 18.0798C27.5617 17.6491 27.5421 17.2133 27.7121 16.7699Z" fill="#2E3052"/>
<path d="M35.522 26.8985C34.9851 26.9639 34.4271 26.8205 34.3407 26.7966C34.1699 26.7502 34.0694 26.5738 34.1158 26.4031C34.1622 26.2323 34.3386 26.1311 34.5093 26.1782C34.8108 26.2597 35.5234 26.3581 35.8003 26.1431C35.8537 26.1016 35.924 26.0236 35.9205 25.8275C35.8994 24.7024 35.1404 21.0157 35.1327 20.9785C35.0968 20.8049 35.2086 20.6355 35.3815 20.5997C35.5557 20.5632 35.7244 20.6749 35.7603 20.8485C35.7919 21.0024 36.5396 24.6314 36.5614 25.8156C36.5698 26.2611 36.366 26.5148 36.1939 26.649C36.0048 26.7959 35.7652 26.869 35.522 26.8985Z" fill="#FB876B"/>
<path d="M31.1406 28.8213C31.4021 30.1397 32.2728 32.5642 35.2061 32.5642C38.1464 32.5642 38.9708 30.3484 39.254 28.8213H31.1406Z" fill="white"/>
<path d="M47.1003 20.9054H45.6477C45.8079 19.4471 45.2781 17.6846 44.841 16.5103C43.8487 13.8476 45.9611 12.6733 44.2527 11.3394C42.5443 10.0028 38.292 10.5755 35.3347 10.48C32.3593 10.3837 27.577 10.4258 26.4167 10.695C25.253 10.9606 25.8911 12.8925 26.3177 14.3894C26.747 15.8828 24.8911 17.5371 24.5804 19.0852C24.4912 19.5294 24.5095 20.19 24.5811 20.9047H23.3703C23.2269 19.0206 23.2051 17.2665 23.2311 15.8441C23.2796 13.3535 24.6388 11.078 26.8054 9.85028C32.6741 6.52343 38.8668 7.7638 42.9435 9.33095C45.7735 10.4174 47.5845 13.1968 47.4405 16.2194C47.3709 17.6565 47.2648 19.2904 47.1003 20.9054Z" fill="#2E3052"/>
<path d="M62.6006 27.0772L10.7002 89.9053L54.1 125.757L106 62.9285L62.6006 27.0772Z" fill="#FFAA01"/>
<path d="M62.5919 27.083L65.3741 29.3817L67.2673 83.7907L13.4775 92.2048L10.6953 89.9068L64.5786 81.5728L62.5919 27.083Z" fill="#F88800"/>
<path d="M54.102 83.0977L55.5947 123.936L54.0915 125.755L52.9853 124.841L51.4639 83.1953L54.102 83.0977Z" fill="#F88800"/>
<path d="M105.03 62.1372L105.99 62.9299L104.351 64.9138L63.9662 71.1578L63.5635 68.5485L105.03 62.1372Z" fill="#F88800"/>
<path d="M10.6914 89.9067L64.5782 81.5727L62.5901 27.0815L10.6914 89.9067Z" fill="#FDCC50"/>
<path d="M53.3514 105.747H54.849C56.187 105.747 57.2039 104.959 57.8041 103.763C58.0697 103.234 58.4302 102.267 58.6797 101.935C59.3797 101.002 61.2891 99.4353 62.0052 99.3875C62.7206 99.3397 62.5884 100.671 62.0832 101.255C61.5772 101.838 60.7803 102.581 60.3523 103.405C59.9243 104.229 63.8527 105.902 65.4473 106.291C67.0418 106.68 69.8423 105.825 70.1143 107.147C70.3863 108.469 68.2864 108.663 68.2864 108.663C68.2864 108.663 68.902 109.854 67.1585 110.841C67.1585 110.841 67.4698 112.008 66.3419 112.63C66.3419 112.63 66.4698 114.108 65.1612 114.497C63.8527 114.885 59.769 116.07 51.7568 111.209L53.3514 105.747Z" fill="#FBA691"/>
<path d="M25.8608 71.7334C28.8854 83.1652 31.8525 88.218 31.8525 88.218C31.8525 88.218 35.2461 93.4037 42.221 98.3103C47.0651 101.719 54.8502 105.747 54.8502 105.747C53.5073 107.493 52.5585 110.944 53.0779 111.976C36.8941 111.976 22.7405 96.6434 22.7405 96.6434C11.417 76.9373 10.6784 60.8884 10.8639 55.0422C10.9293 52.9838 11.5287 50.9669 12.6623 49.248C13.2484 48.3597 13.9799 47.5389 14.8394 47.1348C14.8394 47.1348 19.694 48.9437 21.3807 54.6388C23.0673 60.3347 25.8608 71.7334 25.8608 71.7334Z" fill="#F73042"/>
<path d="M97.9286 72.743C97.9286 72.743 94.3291 71.4703 92.6748 72.159C91.0205 72.8477 95.6053 75.3305 95.6053 75.3305C95.6053 75.3305 90.0472 72.3726 89.0872 73.5645C88.1273 74.7571 93.4443 77.7845 93.4443 77.7845C93.4443 77.7845 89.374 76.3537 88.5468 77.1942C87.7197 78.0347 91.5153 80.4072 91.5153 80.4072C91.5153 80.4072 88.1743 79.6005 87.4772 80.1683C86.7801 80.7361 89.7415 83.115 91.6214 83.7453C93.5013 84.375 93.8041 81.7284 93.8041 81.7284C93.8041 81.7284 95.5723 80.1711 95.3369 79.0903C95.3369 79.0903 97.1718 77.8534 97.3011 76.5884C97.3011 76.5884 99.89 74.308 97.9286 72.743Z" fill="#FBA691"/>
</svg>
