<svg width="24" height="24" viewBox="0 0 24 24" fill="none" xmlns="http://www.w3.org/2000/svg">
<path d="M12 24C5.3736 24 0 18.6264 0 12C0 5.3736 5.3736 0 12 0C18.6264 0 24 5.3736 24 12C24 18.6264 18.6264 24 12 24Z" fill="#3B579D"/>
<path d="M15.1198 24V14.7048H18.2398L18.7078 11.0832H15.1198V8.7696C15.1198 7.7208 15.4102 7.0056 16.915 7.0056H18.8326V3.768C18.5014 3.7248 17.3614 3.6264 16.0366 3.6264C13.2718 3.6264 11.3782 5.3136 11.3782 8.4144V11.0856H8.25098V14.7072H11.3782V24H15.1198Z" fill="white"/>
</svg>
