<svg width="24" height="24" viewBox="0 0 24 24" fill="none" xmlns="http://www.w3.org/2000/svg">
<path d="M23.9996 12.2878C23.9996 11.4773 23.9196 10.6408 23.7862 9.85645H12.2363V14.4839H18.8515C18.5848 15.974 17.7045 17.2812 16.3975 18.1178L20.3452 21.1243C22.6659 19.0067 23.9996 15.9218 23.9996 12.2878Z" fill="#4280EF"/>
<path d="M12.2372 24C15.5447 24 18.3188 22.9281 20.3461 21.0981L16.3983 18.1177C15.3047 18.8497 13.8909 19.268 12.2372 19.268C9.03626 19.268 6.34218 17.1504 5.35524 14.3269L1.30078 17.3857C3.38136 21.4379 7.59586 24 12.2372 24Z" fill="#34A353"/>
<path d="M5.35482 14.3007C4.84801 12.8106 4.84801 11.1897 5.35482 9.69947L1.30036 6.61453C-0.433454 10.0132 -0.433454 14.0132 1.30036 17.3857L5.35482 14.3007Z" fill="#F6B704"/>
<path d="M12.2372 4.75859C13.971 4.73244 15.6781 5.38603 16.9318 6.56249L20.4261 3.11154C18.2121 1.07234 15.278 -0.0256873 12.2372 0.000456281C7.59586 0.000456281 3.38136 2.56253 1.30078 6.61478L5.35524 9.69972C6.34218 6.85007 9.03626 4.75859 12.2372 4.75859Z" fill="#E54335"/>
</svg>
