<svg width="32" height="32" viewBox="0 0 32 32" fill="none" xmlns="http://www.w3.org/2000/svg">
<path d="M21 6.43018H11C8 6.43018 6 8.43018 6 11.4302V17.4302C6 20.4302 8 22.4302 11 22.4302V24.5602C11 25.3602 11.89 25.8402 12.55 25.3902L17 22.4302H21C24 22.4302 26 20.4302 26 17.4302V11.4302C26 8.43018 24 6.43018 21 6.43018ZM16 18.6002C15.58 18.6002 15.25 18.2602 15.25 17.8502C15.25 17.4402 15.58 17.1002 16 17.1002C16.42 17.1002 16.75 17.4402 16.75 17.8502C16.75 18.2602 16.42 18.6002 16 18.6002ZM17.26 14.4502C16.87 14.7102 16.75 14.8802 16.75 15.1602V15.3702C16.75 15.7802 16.41 16.1202 16 16.1202C15.59 16.1202 15.25 15.7802 15.25 15.3702V15.1602C15.25 14.0002 16.1 13.4302 16.42 13.2102C16.79 12.9602 16.91 12.7902 16.91 12.5302C16.91 12.0302 16.5 11.6202 16 11.6202C15.5 11.6202 15.09 12.0302 15.09 12.5302C15.09 12.9402 14.75 13.2802 14.34 13.2802C13.93 13.2802 13.59 12.9402 13.59 12.5302C13.59 11.2002 14.67 10.1202 16 10.1202C17.33 10.1202 18.41 11.2002 18.41 12.5302C18.41 13.6702 17.57 14.2402 17.26 14.4502Z" fill="#202020"/>
</svg>
