<svg width="32" height="32" viewBox="0 0 32 32" fill="none" xmlns="http://www.w3.org/2000/svg">
<path d="M11.6496 24.9098C11.6196 24.9098 11.5796 24.9298 11.5496 24.9298C9.60957 23.9698 8.02957 22.3798 7.05957 20.4398C7.05957 20.4098 7.07957 20.3698 7.07957 20.3398C8.29957 20.6998 9.55957 20.9698 10.8096 21.1798C11.0296 22.4398 11.2896 23.6898 11.6496 24.9098Z" fill="#202020"/>
<path d="M24.94 20.4498C23.95 22.4398 22.3 24.0498 20.29 25.0198C20.67 23.7498 20.99 22.4698 21.2 21.1798C22.46 20.9698 23.7 20.6998 24.92 20.3398C24.91 20.3798 24.94 20.4198 24.94 20.4498Z" fill="#202020"/>
<path d="M25.02 11.71C23.76 11.33 22.49 11.02 21.2 10.8C20.99 9.50998 20.68 8.22998 20.29 6.97998C22.36 7.96998 24.03 9.63998 25.02 11.71Z" fill="#202020"/>
<path d="M11.6505 7.09006C11.2905 8.31006 11.0305 9.55006 10.8205 10.8101C9.53047 11.0101 8.25047 11.3301 6.98047 11.7101C7.95047 9.70006 9.56047 8.05006 11.5505 7.06006C11.5805 7.06006 11.6205 7.09006 11.6505 7.09006Z" fill="#202020"/>
<path d="M19.4898 10.59C17.1698 10.33 14.8298 10.33 12.5098 10.59C12.7598 9.22 13.0798 7.85 13.5298 6.53C13.5498 6.45 13.5398 6.39 13.5498 6.31C14.3398 6.12 15.1498 6 15.9998 6C16.8398 6 17.6598 6.12 18.4398 6.31C18.4498 6.39 18.4498 6.45 18.4698 6.53C18.9198 7.86 19.2398 9.22 19.4898 10.59Z" fill="#202020"/>
<path d="M10.59 19.4898C9.21 19.2398 7.85 18.9198 6.53 18.4698C6.45 18.4498 6.39 18.4598 6.31 18.4498C6.12 17.6598 6 16.8498 6 15.9998C6 15.1598 6.12 14.3398 6.31 13.5598C6.39 13.5498 6.45 13.5498 6.53 13.5298C7.86 13.0898 9.21 12.7598 10.59 12.5098C10.34 14.8298 10.34 17.1698 10.59 19.4898Z" fill="#202020"/>
<path d="M26.0002 15.9998C26.0002 16.8498 25.8802 17.6598 25.6902 18.4498C25.6102 18.4598 25.5502 18.4498 25.4702 18.4698C24.1402 18.9098 22.7802 19.2398 21.4102 19.4898C21.6702 17.1698 21.6702 14.8298 21.4102 12.5098C22.7802 12.7598 24.1502 13.0798 25.4702 13.5298C25.5502 13.5498 25.6102 13.5598 25.6902 13.5598C25.8802 14.3498 26.0002 15.1598 26.0002 15.9998Z" fill="#202020"/>
<path d="M19.4898 21.4102C19.2398 22.7902 18.9198 24.1502 18.4698 25.4702C18.4498 25.5502 18.4498 25.6102 18.4398 25.6902C17.6598 25.8802 16.8398 26.0002 15.9998 26.0002C15.1498 26.0002 14.3398 25.8802 13.5498 25.6902C13.5398 25.6102 13.5498 25.5502 13.5298 25.4702C13.0898 24.1402 12.7598 22.7902 12.5098 21.4102C13.6698 21.5402 14.8298 21.6302 15.9998 21.6302C17.1698 21.6302 18.3398 21.5402 19.4898 21.4102Z" fill="#202020"/>
<path d="M19.7633 19.7633C17.2622 20.0789 14.7378 20.0789 12.2367 19.7633C11.9211 17.2622 11.9211 14.7378 12.2367 12.2367C14.7378 11.9211 17.2622 11.9211 19.7633 12.2367C20.0789 14.7378 20.0789 17.2622 19.7633 19.7633Z" fill="#202020"/>
</svg>
