<svg width="245" height="246" viewBox="0 0 245 246" fill="none" xmlns="http://www.w3.org/2000/svg">
<path d="M24.3163 55.8532C75.3546 -7.26486 196.186 -10.7927 231.716 39.2695C251.292 66.8535 243.112 108.087 239.075 128.431C231.648 165.871 213.331 189.973 209.332 195.086C199.627 207.492 176.055 237.625 140.588 244.513C79.9881 256.283 4.37296 196.359 0.18358 128.752C-2.23161 89.7745 19.9036 61.31 24.3163 55.8532Z" fill="#F4F7FA"/>
<path d="M45.6999 210.66C55.7027 210.827 65.7218 210.804 75.7492 210.592C75.892 210.734 81.6043 193.445 72.7556 182.733C55.2051 161.923 70.9992 147.629 76.2018 138.582C84.2089 125.928 83.0459 110.859 66.5125 108.341C48.2169 105.251 48.4263 79.5576 54.9766 57.0693C59.1215 46.2341 48.2992 30.8849 36.0332 26.0163C23.5493 20.7761 9.62187 26.0166 2.52583 47.7764C-7.10217 72.7744 13.4326 91.5093 20.0286 105.63C26.5229 119.494 5.82188 127.105 19.7415 140.524C31.3749 152.345 46.7974 161.823 39.0219 173.562C31.1018 185.134 31.1542 195.503 45.6999 210.66Z" fill="url(#paint0_linear_2534_2238)"/>
<mask id="mask0_2534_2238" style="mask-type:luminance" maskUnits="userSpaceOnUse" x="0" y="24" width="82" height="187">
<path d="M45.6999 210.66C55.7027 210.827 65.7218 210.804 75.7492 210.592C75.892 210.734 81.6043 193.445 72.7556 182.733C55.2051 161.923 70.9992 147.629 76.2018 138.582C84.2089 125.928 83.0459 110.859 66.5125 108.341C48.2169 105.251 48.4263 79.5576 54.9766 57.0693C59.1215 46.2341 48.2992 30.8849 36.0332 26.0163C23.5493 20.7761 9.62187 26.0166 2.52583 47.7764C-7.10217 72.7744 13.4326 91.5093 20.0286 105.63C26.5229 119.494 5.82188 127.105 19.7415 140.524C31.3749 152.345 46.7974 161.823 39.0219 173.562C31.1018 185.134 31.1542 195.503 45.6999 210.66Z" fill="white"/>
</mask>
<g mask="url(#mask0_2534_2238)">
<path d="M59.2003 213.606C59.2252 213.449 55.0675 174.819 43.9527 136.23C42.5408 130.042 40.9415 123.773 39.3952 117.71C30.7823 83.9468 22.6471 52.056 40.6864 20.357L40.1458 20.125C22.0225 51.9718 30.1781 83.9424 38.8125 117.79C40.3583 123.85 41.9569 130.117 43.3706 136.312C54.5452 175.109 58.6103 213.302 58.6074 213.536L59.2003 213.606Z" fill="#BEB8F2"/>
<path d="M31.6276 86.4514L32.1136 86.1837C22.5711 74.5563 11.3596 58.3566 5.33651 49.6537C0.461669 42.6101 0.436189 42.6088 0.128865 42.6069L0.140375 42.8558L-0.0273438 43.0489C0.258016 43.2886 2.27328 46.2003 4.82439 49.8865C10.8518 58.5957 22.0709 74.8068 31.6276 86.4514Z" fill="#BEB8F2"/>
<path d="M30.4318 72.1113C34.3059 60.899 41.0795 54.101 46.0797 50.3727C51.5264 46.3115 56.3404 44.7647 56.9073 44.7593L56.893 44.566L57.1364 44.3382C57.0004 44.2356 56.827 44.2474 56.5541 44.3048C52.6483 45.1286 36.6707 52.2351 29.8584 71.9512L30.4318 72.1113Z" fill="#BEB8F2"/>
<path d="M49.6721 161.283L50.2683 161.306C50.1955 137.79 72.0865 118.9 81.5019 111.869C82.0077 111.492 82.1707 111.369 82.2334 111.302L81.7556 110.984L81.9945 111.143L81.757 110.983C81.7105 111.03 81.424 111.243 81.0927 111.491C74.3025 116.561 68.4131 122.064 63.5884 127.847C54.32 138.956 49.638 150.206 49.6721 161.283Z" fill="#BEB8F2"/>
<path d="M12.8094 127.639L12.8229 127.395L12.6969 127.612L12.5283 127.343L12.7809 127.144C12.7817 127.144 12.783 127.144 12.7847 127.144C13.193 127.163 37.8238 131.748 47.3824 149.166L46.8427 149.355C37.3794 132.111 13.0457 127.667 12.8094 127.639Z" fill="#BEB8F2"/>
<path d="M58.4137 207.28C58.8628 202.573 62.0009 194.875 74.3983 184.935C75.1019 184.372 75.1019 184.372 75.0977 184.242L74.5018 184.231L74.7997 184.236L74.5471 184.098C74.5052 184.143 74.2592 184.34 73.9749 184.568C61.4506 194.609 58.2765 202.426 57.8193 207.216L58.4137 207.28Z" fill="#BEB8F2"/>
<path d="M56.5637 198.05L57.1514 197.992C55.4073 189.241 42.2273 181.186 34.5262 177.163C34.2819 177.036 34.1247 176.954 34.0691 176.92L33.7373 177.32C33.7969 177.356 33.9659 177.444 34.2289 177.582C41.8389 181.557 54.8599 189.502 56.5637 198.05Z" fill="#BEB8F2"/>
</g>
<path d="M89.2853 127.94C91.3276 131.174 93.3701 133.603 95.5123 136.67C79.646 139.493 64.8682 145.123 48.7874 148.015C54.6589 127.786 62.3985 117.665 50.7159 96.2171C45.2335 86.1519 31.479 67.921 33.2888 56.3935C35.3509 43.2605 44.6309 44.2454 39.7833 34.0864C32.2067 18.2081 36.0291 -1.41857 60.4637 0.080977C84.5796 1.56102 98.4022 62.7359 89.6075 82.445C85.4845 100.716 78.6207 111.05 89.2853 127.94Z" fill="url(#paint1_linear_2534_2238)"/>
<mask id="mask1_2534_2238" style="mask-type:luminance" maskUnits="userSpaceOnUse" x="33" y="0" width="63" height="149">
<path d="M89.2843 127.94C91.3266 131.174 93.3691 133.603 95.5113 136.67C79.6451 139.493 64.8672 145.123 48.7864 148.015C54.6579 127.786 62.3976 117.665 50.7149 96.2171C45.2325 86.1519 31.478 67.921 33.2879 56.3935C35.3499 43.2605 44.63 44.2454 39.7824 34.0864C32.2057 18.2081 36.0281 -1.41857 60.4627 0.080977C84.5786 1.56102 98.4012 62.7359 89.6066 82.445C85.4835 100.716 78.6198 111.05 89.2843 127.94Z" fill="white"/>
</mask>
<g mask="url(#mask1_2534_2238)">
<g opacity="0.7">
<path d="M70.5631 140.702L70.9103 140.691C70.7185 134.751 70.9913 128.724 71.2553 122.895L71.3548 120.681C71.5614 115.992 71.6627 111.794 71.7519 108.09C71.8021 106.016 71.8494 104.044 71.9109 102.138C72.0993 96.3082 72.2421 92.2287 72.3131 90.2006L72.3593 88.8612C72.8703 72.8742 67.6833 50.9627 64.8967 39.1909C64.5951 37.9171 64.3255 36.7783 64.0997 35.7986C60.2169 18.9598 58.1931 0.973679 58.0849 -17.6597L57.7373 -17.6577C57.8458 1.00135 59.8725 19.0129 63.7612 35.8767C63.9872 36.8569 64.2569 37.9963 64.5587 39.2709C67.3416 51.027 72.5217 72.9092 72.0122 88.85L71.9659 90.1885C71.8949 92.2168 71.7522 96.2967 71.5638 102.127C71.5022 104.034 71.4547 106.006 71.4047 108.082C71.3154 111.784 71.2142 115.98 71.0076 120.666L70.9083 122.88C70.6442 128.715 70.3709 134.749 70.5631 140.702Z" fill="#FCFDFE"/>
<path d="M71.7433 111.155L72.0905 111.149C71.9259 100.568 67.4698 88.206 59.2037 75.3993C52.319 64.7323 42.9697 54.1322 33.5528 46.3169L33.3311 46.5841C51.5833 61.7324 71.3891 88.4002 71.7433 111.155Z" fill="#FCFDFE"/>
<path d="M65.0504 41.2347L65.3577 41.0732C61.0972 32.9767 55.7886 25.3718 50.6545 18.017C47.1409 12.9838 43.5077 7.77918 40.2403 2.45996L39.9443 2.64191C43.2172 7.96974 46.8533 13.1787 50.3696 18.2159C55.4976 25.5619 60.8001 33.1576 65.0504 41.2347Z" fill="#FCFDFE"/>
<path d="M71.0899 70.1959C73.1178 57.6394 81.5265 41.7468 89.0847 36.1857L88.8788 35.9058C81.2595 41.5117 72.7869 57.5093 70.7471 70.1407L71.0899 70.1959Z" fill="#FCFDFE"/>
</g>
</g>
<path d="M85.2225 67.2839C87.7248 86.7493 75.8809 86.4054 60.7412 86.6272C68.9163 102.976 76.2745 119.195 83.6848 135.681C93.8154 135.382 101.066 134.98 102.662 122.779C104.466 108.981 105.05 100.958 118.276 93.2159C131.502 85.4736 138.723 71.3632 129.312 59.2729C119.407 46.5499 125.493 23.5382 109.84 17.142C82.5639 5.99687 82.6169 47.0144 85.2225 67.2839Z" fill="url(#paint2_linear_2534_2238)"/>
<mask id="mask2_2534_2238" style="mask-type:luminance" maskUnits="userSpaceOnUse" x="60" y="15" width="74" height="121">
<path d="M85.2215 67.2839C87.7238 86.7493 75.8799 86.4054 60.7402 86.6272C68.9153 102.976 76.2735 119.195 83.6838 135.681C93.8144 135.382 101.065 134.98 102.661 122.779C104.465 108.981 105.049 100.958 118.275 93.2159C131.501 85.4736 138.722 71.3632 129.311 59.2729C119.406 46.5499 125.492 23.5382 109.839 17.142C82.5629 5.99687 82.616 47.0144 85.2215 67.2839Z" fill="white"/>
</mask>
<g mask="url(#mask2_2534_2238)">
<g opacity="0.5">
<path d="M77.5003 113.43C89.2631 101.791 98.741 91.7647 104.782 77.6432C110.563 64.1275 111.317 51.4315 107.301 35.1909C105.221 26.7762 104.681 20.5118 104.096 11.915L103.749 11.9385C104.336 20.5538 104.876 26.8321 106.964 35.274C110.96 51.4356 110.212 64.066 104.462 77.5066C98.4465 91.5702 88.9914 101.571 77.2559 113.183L77.5003 113.43Z" fill="#FCFDFE"/>
<path d="M103.014 129.96L103.198 129.666C98.5764 126.783 93.9571 124.733 89.076 123.399C86.5783 122.716 84.1819 122.493 81.352 122.369L81.3369 122.716C84.1433 122.839 86.5178 123.06 88.9844 123.734C93.8323 125.059 98.4215 127.096 103.014 129.96Z" fill="#FCFDFE"/>
<path d="M100.599 86.0275C109.465 77.2224 122.246 71.4692 136.588 69.8281L136.549 69.4829C122.129 71.133 109.275 76.921 100.354 85.781L100.599 86.0275Z" fill="#FCFDFE"/>
<path d="M109.5 53.1718L109.84 53.0993C109.451 51.2801 101.02 35.6723 98.4456 30.9319C93.118 21.1235 87.2531 10.6337 86.66 10.0576L86.418 10.3069C86.9108 10.7859 92.2791 20.3068 98.1404 31.0977C103.435 40.8449 109.199 51.7626 109.5 53.1718Z" fill="#FCFDFE"/>
</g>
</g>
<path d="M167.981 246L236.946 240.754V46.6868L167.981 41.5791V246Z" fill="url(#paint3_linear_2534_2238)"/>
<path d="M230.266 117.454V199.928H231.616V221.036H167.981V117.454H230.266Z" fill="#D8DEE8"/>
<mask id="mask3_2534_2238" style="mask-type:luminance" maskUnits="userSpaceOnUse" x="167" y="50" width="65" height="187">
<path d="M231.617 232.271V55.18L167.982 50.9028V236.676L231.617 232.271Z" fill="white"/>
</mask>
<g mask="url(#mask3_2534_2238)">
<path d="M147.34 27.4351C147.34 27.4351 147.273 72.0796 137.261 92.5735C127.25 113.067 123.483 133.02 131.017 144.702C138.55 156.385 167.982 138.559 167.982 138.559C167.982 138.559 181.868 148.356 188.146 169.321C194.424 190.286 235.231 207.756 244.02 201.846C252.809 195.936 249.042 37.717 249.042 37.717L147.34 27.4351Z" fill="white"/>
<path d="M245.903 213.876C245.903 213.876 221.176 225.407 202.463 214.752C183.751 204.098 167.981 184.95 167.981 184.95C167.981 184.95 148.95 196.611 138.728 195.96C128.505 195.308 120.942 162.508 120.942 162.508C120.942 162.508 104.021 154.099 96.4873 137.036C88.9538 119.973 65.8293 101.391 53.1695 97.4982C40.5096 93.6056 33.0801 100.872 33.0801 100.872L36.219 249.599L231.615 259.831L245.903 213.876Z" fill="white"/>
</g>
<path d="M120.942 52.9995H40.5088V234.849H120.942V52.9995Z" fill="url(#paint4_linear_2534_2238)"/>
<path d="M120.941 226.541L120.941 61.1807L47.0302 61.1807L47.0302 226.541H120.941Z" fill="#D8DEE8"/>
<mask id="mask4_2534_2238" style="mask-type:luminance" maskUnits="userSpaceOnUse" x="47" y="61" width="74" height="166">
<path d="M120.942 226.541L120.942 61.1807L47.0312 61.1807L47.0312 226.541H120.942Z" fill="white"/>
</mask>
<g mask="url(#mask4_2534_2238)">
<path d="M245.902 213.876C245.902 213.876 221.175 225.407 202.462 214.752C183.75 204.097 167.98 184.949 167.98 184.949C167.98 184.949 148.949 196.61 138.727 195.959C128.504 195.308 120.941 162.508 120.941 162.508C120.941 162.508 104.02 154.098 96.4864 137.035C88.9528 119.973 65.8284 101.39 53.1685 97.4977C40.5087 93.6052 33.0791 100.872 33.0791 100.872L36.2181 249.598L231.614 259.83L245.902 213.876Z" fill="white"/>
<path d="M134.543 32.9868C134.543 32.9868 141.21 63.5769 134.543 71.6851C127.877 79.7935 122.796 103 120.942 109.289C119.087 115.578 104.648 129.343 97.1146 116.81C89.5811 104.277 78.2808 95.1358 72.6306 90.9175C66.9805 86.6992 31.1962 82.3672 29.3128 79.1969C27.4294 76.0267 26.1738 40.054 26.1738 40.054L134.543 32.9868Z" fill="white"/>
</g>
<path d="M120.941 234.849L167.98 246V41.5791L120.941 52.9998V234.849Z" fill="url(#paint5_linear_2534_2238)"/>
<path d="M120.941 198.84V63.3051L137.505 57.6352L145.72 55.8204L147.137 55.6538V138.344H167.98V198.84H120.941Z" fill="#BFC8D6"/>
<mask id="mask5_2534_2238" style="mask-type:luminance" maskUnits="userSpaceOnUse" x="120" y="50" width="48" height="187">
<path d="M167.979 236.676V50.9028L120.94 61.294V226.555L167.979 236.676Z" fill="white"/>
</mask>
<g mask="url(#mask5_2534_2238)">
<path d="M147.338 27.4351C147.338 27.4351 147.271 72.0796 137.259 92.5735C127.248 113.067 123.481 133.02 131.015 144.702C138.548 156.385 167.98 138.559 167.98 138.559C167.98 138.559 181.866 148.356 188.144 169.321C194.422 190.286 235.229 207.756 244.018 201.846C252.807 195.936 249.04 37.717 249.04 37.717L147.338 27.4351Z" fill="#D8DEE8"/>
<path d="M245.901 213.876C245.901 213.876 221.174 225.407 202.461 214.752C183.749 204.098 167.979 184.95 167.979 184.95C167.979 184.95 148.948 196.611 138.726 195.96C128.503 195.308 120.94 162.508 120.94 162.508C120.94 162.508 104.019 154.099 96.4854 137.036C88.9518 119.973 65.8274 101.391 53.1675 97.4982C40.5077 93.6056 33.0781 100.872 33.0781 100.872L36.2171 249.599L231.613 259.831L245.901 213.876Z" fill="#D8DEE8"/>
<path d="M134.542 32.9873C134.542 32.9873 141.209 63.5774 134.542 71.6856C127.876 79.794 122.795 103 120.941 109.289C119.086 115.578 104.647 129.344 97.1137 116.811C89.5801 104.278 78.2798 95.1363 72.6297 90.918C66.9796 86.6997 31.1952 82.3676 29.3118 79.1974C27.4284 76.0272 26.1729 40.0545 26.1729 40.0545L134.542 32.9873Z" fill="#D8DEE8"/>
</g>
<path opacity="0.53" d="M84.614 61.1812H83.3584V234.849H84.614V61.1812Z" fill="url(#paint6_linear_2534_2238)"/>
<path opacity="0.53" d="M200.425 53.0415H199.169V234.849H200.425V53.0415Z" fill="url(#paint7_linear_2534_2238)"/>
<path opacity="0.53" d="M47.0303 119.301H121.015L121.087 119.284L168.027 108.127L231.561 113.493L231.667 112.242L167.933 106.859L167.835 106.882L120.868 118.045H47.0303V119.301Z" fill="url(#paint8_linear_2534_2238)"/>
<path d="M144.457 47.0214C144.457 64.558 167.39 106.665 176.898 121.344C178.515 123.84 185.163 123.376 186.779 120.88C196.287 106.201 222.219 64.558 222.219 47.0214C222.219 25.5481 204.811 8.14062 183.338 8.14062C161.865 8.14062 144.457 25.5481 144.457 47.0214Z" fill="url(#paint9_linear_2534_2238)"/>
<path d="M140.236 47.0214C140.236 64.5581 166.168 106.201 175.676 120.88C177.292 123.376 180.942 123.376 182.558 120.88C192.066 106.201 217.998 64.558 217.998 47.0214C217.998 25.5481 200.59 8.14062 179.117 8.14062C157.644 8.14062 140.236 25.5482 140.236 47.0214Z" fill="url(#paint10_linear_2534_2238)"/>
<path opacity="0.7" d="M198.106 67.4107C208.985 56.5311 208.985 38.8917 198.106 28.0121C187.226 17.1325 169.587 17.1325 158.707 28.0121C147.828 38.8917 147.827 56.5311 158.707 67.4107C169.587 78.2904 187.226 78.2904 198.106 67.4107Z" fill="white"/>
<path opacity="0.7" d="M196.932 66.2376C207.164 56.0059 207.164 39.417 196.932 29.1853C186.7 18.9535 170.111 18.9535 159.88 29.1852C149.648 39.417 149.648 56.0059 159.88 66.2376C170.111 76.4693 186.7 76.4693 196.932 66.2376Z" fill="white"/>
<path d="M111.514 134.637C111.514 134.637 111.216 128.074 109.879 125.032C105.25 126.318 83.2254 133.496 76.2627 135.771C74.4672 136.357 73.5751 138.431 74.4765 140.09C74.4858 140.108 74.4953 140.125 74.505 140.142C74.5145 140.159 74.524 140.176 74.5334 140.192C75.3509 141.626 77.0581 142.296 78.6576 141.89C92.9609 138.252 96.2775 138.615 111.514 134.637Z" fill="url(#paint11_linear_2534_2238)"/>
<path d="M139.327 131.218C139.327 131.218 136.854 119.051 134.265 113.505C121.359 117.714 103.798 124.702 94.7043 127.859C93.2347 128.369 92.1933 129.676 92.016 131.221C91.8972 132.257 91.942 133.509 92.4002 134.85C93.0131 136.642 94.1161 137.866 95.0951 138.653C96.0759 139.443 97.3695 139.728 98.5921 139.427C119.927 134.179 117.333 136.658 139.327 131.218Z" fill="url(#paint12_linear_2534_2238)"/>
<path d="M131.34 124.181C129.592 119.335 130.334 114.627 132.998 113.667C135.661 112.707 139.237 115.857 140.984 120.704C142.732 125.551 141.99 130.258 139.326 131.218C136.663 132.179 133.087 129.028 131.34 124.181Z" fill="url(#paint13_linear_2534_2238)"/>
<path d="M133.252 123.492C131.889 119.71 132.281 116.104 134.128 115.438C135.976 114.772 138.579 117.298 139.943 121.08C141.306 124.862 140.914 128.468 139.067 129.134C137.219 129.8 134.616 127.274 133.252 123.492Z" fill="url(#paint14_linear_2534_2238)"/>
<path d="M103.891 145.655C103.891 145.655 101.368 144.297 98.9315 143.088C96.495 141.879 96.7379 139.632 94.7781 137.534C92.8184 135.436 92.8184 135.436 92.8184 135.436C92.8184 135.436 95.1401 134.616 96.495 136.703C97.8499 138.79 100.539 138.953 100.539 138.953L102.484 138.492L104.679 143.371L103.891 145.655Z" fill="url(#paint15_linear_2534_2238)"/>
<path d="M103.981 140.527C121.135 139.553 135.575 150.372 138.392 163.865C142.187 182.045 124.124 201.456 105.31 199.714C88.4737 198.155 71.8008 179.033 75.8344 158.682C78.7664 157.55 85.4795 157.206 90.6686 157.081C105.179 156.73 115.125 165.567 116.493 163.9C117.292 162.926 114.865 158.737 101.452 145.112C102.295 143.584 103.138 142.055 103.981 140.527Z" fill="url(#paint16_linear_2534_2238)"/>
<path opacity="0.3" d="M138.392 163.864C136.827 156.369 131.674 149.699 124.461 145.417C128.037 148.807 130.104 151.612 131.18 153.942C131.687 155.041 132.247 157.136 131.952 159.616C131.313 164.999 126.807 166.222 122.6 172.617C118.259 179.215 120.526 181.759 117.387 183.918C110.829 188.429 99.7005 178.179 95.0998 181.914C93.291 183.382 92.3407 187.134 95.45 196.796C98.5391 198.381 101.87 199.395 105.31 199.713C124.124 201.455 142.188 182.045 138.392 163.864Z" fill="url(#paint17_linear_2534_2238)"/>
<path d="M44.1564 231.588C43.8145 232.684 43.4727 233.781 43.1307 234.878C40.7514 235.54 28.5389 238.68 16.8544 231.663C5.56051 224.881 0.826155 212.252 1.12135 202.153C1.8069 178.703 29.6866 166.407 32.8234 165.077C41.2445 161.506 49.6433 160.625 63.2315 159.201C73.5042 158.124 78.6404 157.586 81.8463 158.844C97.5239 164.998 103.135 193.543 102.237 209.221C101.71 218.426 98.7396 226.656 102.392 237.254C102.993 238.997 103.754 240.749 102.951 242.425C100.741 247.043 90.1127 243.895 72.4819 244.242C54.7122 244.592 47.472 248.145 44.5283 243.963C41.9796 240.342 45.8089 235.407 47.8827 226.911C49.8023 219.046 50.3842 207.447 43.9693 191.55C42.7169 192.341 34.3269 197.839 32.9276 208.322C31.7303 217.293 36.1241 226.381 44.1564 231.588Z" fill="url(#paint18_linear_2534_2238)"/>
<path opacity="0.3" d="M80.0294 230.265C76.6122 222.873 81.3317 215.651 75.6967 208.182C71.1307 202.13 66.3504 204.643 58.9246 198.119C49.139 189.521 50.8714 179.387 45.6467 178.691C40.0144 177.941 32.3731 188.968 31.1108 199.656C30.4549 205.209 31.6031 209.973 32.8258 213.284C32.6773 211.643 32.7064 209.98 32.9278 208.322C34.3271 197.838 42.7171 192.341 43.9695 191.55C50.3845 207.447 49.8026 219.046 47.8829 226.911C45.8091 235.407 41.9798 240.341 44.5285 243.963C47.4722 248.145 54.7125 244.592 72.4821 244.242C90.032 243.897 100.642 247.013 102.919 242.487C88.2204 240.188 82.3144 235.208 80.0294 230.265Z" fill="url(#paint19_linear_2534_2238)"/>
<path d="M42.3241 232.057C42.3241 232.057 48.9338 228.377 51.1097 228.588C53.2855 228.8 55.4943 233.061 56.4408 233.9C57.3872 234.738 53.0784 235.533 51.1097 234.716C49.141 233.9 45.1755 237.125 42.8942 235.479C40.6129 233.832 42.3241 232.057 42.3241 232.057Z" fill="url(#paint20_linear_2534_2238)"/>
<path d="M62.1526 146.373C62.1526 146.373 62.766 159.968 50.6914 160.63C50.6914 160.63 65.1292 166.767 68.6659 167.697C72.2027 168.628 77.1903 158.418 77.1903 158.418L73.3499 157.442C71.6527 157.01 70.3112 155.71 69.8329 154.025C69.4275 152.597 69.1101 150.894 69.3878 149.619C69.9664 146.964 62.1526 146.373 62.1526 146.373Z" fill="url(#paint21_linear_2534_2238)"/>
<path d="M70.9004 141.939C72.1106 140.084 74.5326 136.371 73.2131 134.271C72.2258 132.699 69.9092 133.248 68.953 131.349C68.2328 129.92 69.2711 129.061 68.7096 127.576C67.8253 125.239 63.7871 123.498 61.2849 124.655C58.6706 125.864 59.6229 129.363 56.538 131.106C54.4165 132.304 53.1417 131.116 51.5476 132.445C49.6755 134.006 49.5064 137.254 50.2089 139.504C50.8648 141.606 52.248 142.733 54.9223 144.85C58.4652 147.654 60.2366 149.056 62.5097 148.983C66.3861 148.859 68.9603 144.913 70.9004 141.939Z" fill="url(#paint22_linear_2534_2238)"/>
<path d="M59.0546 144.855C59.0546 144.855 56.4118 142.513 54.5687 143.642C52.7255 144.77 57.6512 149.56 60.1392 148.929L59.0546 144.855Z" fill="url(#paint23_linear_2534_2238)"/>
<path d="M71.9899 137.528C70.5755 137.506 71.1561 140.566 71.1561 140.566L71.9899 145.43C74.8102 143.476 73.4043 137.55 71.9899 137.528Z" fill="url(#paint24_linear_2534_2238)"/>
<path d="M70.4149 137.835C72.3747 140.753 72.2489 143.921 72.1371 144.936C71.9128 146.974 71.5279 150.47 68.9887 151.777C65.9684 153.331 62.0356 150.899 60.1393 148.929C57.7167 146.412 56.1793 142.135 57.7224 140.105C58.2891 139.359 58.7565 139.594 60.9899 138.614C65.1016 136.81 65.9404 134.951 67.7362 135.325C68.8913 135.566 69.5482 136.544 70.4149 137.835Z" fill="url(#paint25_linear_2534_2238)"/>
<defs>
<linearGradient id="paint0_linear_2534_2238" x1="69.4118" y1="43.1572" x2="15.0771" y2="197.582" gradientUnits="userSpaceOnUse">
<stop offset="0.0036" stop-color="#F73042"/>
<stop offset="1" stop-color="#FFD002"/>
</linearGradient>
<linearGradient id="paint1_linear_2534_2238" x1="112.324" y1="165.097" x2="-13.3684" y2="-52.2459" gradientUnits="userSpaceOnUse">
<stop stop-color="#FFC444"/>
<stop offset="0.9964" stop-color="#F36F56"/>
</linearGradient>
<linearGradient id="paint2_linear_2534_2238" x1="78.5379" y1="43.3423" x2="143.891" y2="150.93" gradientUnits="userSpaceOnUse">
<stop offset="0.0036" stop-color="#FFD002"/>
<stop offset="1" stop-color="#F73042"/>
</linearGradient>
<linearGradient id="paint3_linear_2534_2238" x1="236.946" y1="143.79" x2="167.981" y2="143.79" gradientUnits="userSpaceOnUse">
<stop stop-color="#FF9085"/>
<stop offset="1" stop-color="#FB6FBB"/>
</linearGradient>
<linearGradient id="paint4_linear_2534_2238" x1="99.0033" y1="96.8442" x2="19.0902" y2="302.681" gradientUnits="userSpaceOnUse">
<stop stop-color="#FF9085"/>
<stop offset="1" stop-color="#FB6FBB"/>
</linearGradient>
<linearGradient id="paint5_linear_2534_2238" x1="187.256" y1="143.673" x2="99.9316" y2="144.202" gradientUnits="userSpaceOnUse">
<stop stop-color="#FF9085"/>
<stop offset="1" stop-color="#FB6FBB"/>
</linearGradient>
<linearGradient id="paint6_linear_2534_2238" x1="84.614" y1="148.015" x2="83.3584" y2="148.015" gradientUnits="userSpaceOnUse">
<stop stop-color="#311944"/>
<stop offset="1" stop-color="#A03976"/>
</linearGradient>
<linearGradient id="paint7_linear_2534_2238" x1="200.424" y1="143.945" x2="199.169" y2="143.945" gradientUnits="userSpaceOnUse">
<stop stop-color="#311944"/>
<stop offset="1" stop-color="#A03976"/>
</linearGradient>
<linearGradient id="paint8_linear_2534_2238" x1="231.667" y1="113.08" x2="47.0303" y2="113.08" gradientUnits="userSpaceOnUse">
<stop stop-color="#311944"/>
<stop offset="1" stop-color="#A03976"/>
</linearGradient>
<linearGradient id="paint9_linear_2534_2238" x1="162.054" y1="4.21194" x2="231.483" y2="148.776" gradientUnits="userSpaceOnUse">
<stop stop-color="#F73042"/>
<stop offset="0.9964" stop-color="#3E4177"/>
</linearGradient>
<linearGradient id="paint10_linear_2534_2238" x1="158.376" y1="3.93964" x2="227.887" y2="148.675" gradientUnits="userSpaceOnUse">
<stop stop-color="#FA8791"/>
<stop offset="0.9964" stop-color="#F73042"/>
</linearGradient>
<linearGradient id="paint11_linear_2534_2238" x1="89.7131" y1="128.761" x2="96.6197" y2="139.444" gradientUnits="userSpaceOnUse">
<stop stop-color="#AA80F9"/>
<stop offset="0.9964" stop-color="#6165D7"/>
</linearGradient>
<linearGradient id="paint12_linear_2534_2238" x1="110.275" y1="119.931" x2="121.205" y2="136.032" gradientUnits="userSpaceOnUse">
<stop stop-color="#AA80F9"/>
<stop offset="0.9964" stop-color="#6165D7"/>
</linearGradient>
<linearGradient id="paint13_linear_2534_2238" x1="121.953" y1="126.281" x2="157.786" y2="116.601" gradientUnits="userSpaceOnUse">
<stop stop-color="#AA80F9"/>
<stop offset="0.9964" stop-color="#6165D7"/>
</linearGradient>
<linearGradient id="paint14_linear_2534_2238" x1="133.366" y1="117.288" x2="138.756" y2="125.625" gradientUnits="userSpaceOnUse">
<stop stop-color="#FFC444"/>
<stop offset="0.9964" stop-color="#F36F56"/>
</linearGradient>
<linearGradient id="paint15_linear_2534_2238" x1="98.56" y1="136.491" x2="100.447" y2="165.632" gradientUnits="userSpaceOnUse">
<stop stop-color="#FCB148"/>
<stop offset="0.0521" stop-color="#FDBA46"/>
<stop offset="0.1424" stop-color="#FFC244"/>
<stop offset="0.3183" stop-color="#FFC444"/>
<stop offset="0.4849" stop-color="#FDB946"/>
<stop offset="0.7754" stop-color="#F99C4D"/>
<stop offset="0.8658" stop-color="#F8924F"/>
<stop offset="1" stop-color="#F8924F"/>
</linearGradient>
<linearGradient id="paint16_linear_2534_2238" x1="107.938" y1="165.076" x2="70.5061" y2="254.271" gradientUnits="userSpaceOnUse">
<stop offset="0.0036" stop-color="#E38DDD"/>
<stop offset="1" stop-color="#9571F6"/>
</linearGradient>
<linearGradient id="paint17_linear_2534_2238" x1="91.7962" y1="176.095" x2="139.233" y2="169.549" gradientUnits="userSpaceOnUse">
<stop offset="0.0036" stop-color="#E38DDD"/>
<stop offset="1" stop-color="#9571F6"/>
</linearGradient>
<linearGradient id="paint18_linear_2534_2238" x1="88.0019" y1="157.844" x2="38.7339" y2="241.075" gradientUnits="userSpaceOnUse">
<stop offset="0.0036" stop-color="#F85362"/>
<stop offset="1" stop-color="#9571F6"/>
</linearGradient>
<linearGradient id="paint19_linear_2534_2238" x1="30.9199" y1="212.319" x2="102.919" y2="212.319" gradientUnits="userSpaceOnUse">
<stop offset="0.0036" stop-color="#FA8791"/>
<stop offset="1" stop-color="#F85362"/>
</linearGradient>
<linearGradient id="paint20_linear_2534_2238" x1="53.0681" y1="227.859" x2="35.038" y2="254.066" gradientUnits="userSpaceOnUse">
<stop stop-color="#FCB148"/>
<stop offset="0.0521" stop-color="#FDBA46"/>
<stop offset="0.1424" stop-color="#FFC244"/>
<stop offset="0.3183" stop-color="#FFC444"/>
<stop offset="0.4849" stop-color="#FDB946"/>
<stop offset="0.7754" stop-color="#F99C4D"/>
<stop offset="0.8658" stop-color="#F8924F"/>
<stop offset="1" stop-color="#F8924F"/>
</linearGradient>
<linearGradient id="paint21_linear_2534_2238" x1="63.4806" y1="175.631" x2="64.3193" y2="146.279" gradientUnits="userSpaceOnUse">
<stop stop-color="#FCB148"/>
<stop offset="0.0521" stop-color="#FDBA46"/>
<stop offset="0.1424" stop-color="#FFC244"/>
<stop offset="0.3183" stop-color="#FFC444"/>
<stop offset="0.4849" stop-color="#FDB946"/>
<stop offset="0.7754" stop-color="#F99C4D"/>
<stop offset="0.8658" stop-color="#F8924F"/>
<stop offset="1" stop-color="#F8924F"/>
</linearGradient>
<linearGradient id="paint22_linear_2534_2238" x1="61.7169" y1="135.791" x2="62.0821" y2="101.832" gradientUnits="userSpaceOnUse">
<stop stop-color="#40447E"/>
<stop offset="0.9964" stop-color="#3C3B6B"/>
</linearGradient>
<linearGradient id="paint23_linear_2534_2238" x1="59.5085" y1="153.547" x2="51.413" y2="128.923" gradientUnits="userSpaceOnUse">
<stop stop-color="#FCB148"/>
<stop offset="0.0521" stop-color="#FDBA46"/>
<stop offset="0.1424" stop-color="#FFC244"/>
<stop offset="0.3183" stop-color="#FFC444"/>
<stop offset="0.4849" stop-color="#FDB946"/>
<stop offset="0.7754" stop-color="#F99C4D"/>
<stop offset="0.8658" stop-color="#F8924F"/>
<stop offset="1" stop-color="#F8924F"/>
</linearGradient>
<linearGradient id="paint24_linear_2534_2238" x1="74.6783" y1="148.559" x2="66.5828" y2="123.935" gradientUnits="userSpaceOnUse">
<stop stop-color="#FCB148"/>
<stop offset="0.0521" stop-color="#FDBA46"/>
<stop offset="0.1424" stop-color="#FFC244"/>
<stop offset="0.3183" stop-color="#FFC444"/>
<stop offset="0.4849" stop-color="#FDB946"/>
<stop offset="0.7754" stop-color="#F99C4D"/>
<stop offset="0.8658" stop-color="#F8924F"/>
<stop offset="1" stop-color="#F8924F"/>
</linearGradient>
<linearGradient id="paint25_linear_2534_2238" x1="67.411" y1="151.08" x2="60.0607" y2="128.723" gradientUnits="userSpaceOnUse">
<stop stop-color="#FCB148"/>
<stop offset="0.0521" stop-color="#FDBA46"/>
<stop offset="0.1424" stop-color="#FFC244"/>
<stop offset="0.3183" stop-color="#FFC444"/>
<stop offset="0.4849" stop-color="#FDB946"/>
<stop offset="0.7754" stop-color="#F99C4D"/>
<stop offset="0.8658" stop-color="#F8924F"/>
<stop offset="1" stop-color="#F8924F"/>
</linearGradient>
</defs>
</svg>
