<svg width="32" height="32" viewBox="0 0 32 32" fill="none" xmlns="http://www.w3.org/2000/svg">
<path d="M25.2502 22.4701L23.6002 22.8601C23.2302 22.9501 22.9402 23.2301 22.8602 23.6001L22.5102 25.0701C22.3202 25.8701 21.3002 26.1201 20.7702 25.4901L17.7802 22.0501C17.5402 21.7701 17.6702 21.3301 18.0302 21.2401C19.8002 20.8101 21.3902 19.8201 22.5602 18.4101C22.7502 18.1801 23.0902 18.1501 23.3002 18.3601L25.5202 20.5801C26.2802 21.3401 26.0102 22.2901 25.2502 22.4701Z" fill="#292D32"/>
<path d="M6.70016 22.4701L8.35016 22.8601C8.72016 22.9501 9.01016 23.2301 9.09016 23.6001L9.44016 25.0701C9.63016 25.8701 10.6502 26.1201 11.1802 25.4901L14.1702 22.0501C14.4102 21.7701 14.2802 21.3301 13.9202 21.2401C12.1502 20.8101 10.5602 19.8201 9.39016 18.4101C9.20016 18.1801 8.86016 18.1501 8.65016 18.3601L6.43016 20.5801C5.67016 21.3401 5.94016 22.2901 6.70016 22.4701Z" fill="#292D32"/>
<path d="M16 6C12.13 6 9 9.13 9 13C9 14.45 9.43 15.78 10.17 16.89C11.25 18.49 12.96 19.62 14.95 19.91C15.29 19.97 15.64 20 16 20C16.36 20 16.71 19.97 17.05 19.91C19.04 19.62 20.75 18.49 21.83 16.89C22.57 15.78 23 14.45 23 13C23 9.13 19.87 6 16 6ZM19.06 12.78L18.23 13.61C18.09 13.75 18.01 14.02 18.06 14.22L18.3 15.25C18.49 16.06 18.06 16.38 17.34 15.95L16.34 15.36C16.16 15.25 15.86 15.25 15.68 15.36L14.68 15.95C13.96 16.37 13.53 16.06 13.72 15.25L13.96 14.22C14 14.03 13.93 13.75 13.79 13.61L12.94 12.78C12.45 12.29 12.61 11.8 13.29 11.69L14.36 11.51C14.54 11.48 14.75 11.32 14.83 11.16L15.42 9.98C15.74 9.34 16.26 9.34 16.58 9.98L17.17 11.16C17.25 11.32 17.46 11.48 17.65 11.51L18.72 11.69C19.39 11.8 19.55 12.29 19.06 12.78Z" fill="#292D32"/>
</svg>
