<svg width="32" height="32" viewBox="0 0 32 32" fill="none" xmlns="http://www.w3.org/2000/svg">
<path d="M24.3601 16.7301C23.9901 16.7301 23.6801 16.4501 23.6401 16.0801C23.4001 13.8801 22.2201 11.9001 20.4001 10.6401C20.0701 10.4101 19.9901 9.96007 20.2201 9.63007C20.4501 9.30007 20.9001 9.22007 21.2301 9.45007C23.4001 10.9601 24.8001 13.3201 25.0901 15.9301C25.1301 16.3301 24.8401 16.6901 24.4401 16.7301C24.4101 16.7301 24.3901 16.7301 24.3601 16.7301Z" fill="#202020"/>
<path d="M7.74029 16.7802C7.72029 16.7802 7.69029 16.7802 7.67029 16.7802C7.27029 16.7402 6.98029 16.3802 7.02029 15.9802C7.29029 13.3702 8.67029 11.0102 10.8203 9.4902C11.1403 9.2602 11.6003 9.3402 11.8303 9.6602C12.0603 9.9902 11.9803 10.4402 11.6603 10.6702C9.86029 11.9502 8.69029 13.9302 8.47029 16.1202C8.43029 16.5002 8.11029 16.7802 7.74029 16.7802Z" fill="#292D32"/>
<path d="M19.9896 25.0998C18.7596 25.6898 17.4396 25.9898 16.0596 25.9898C14.6196 25.9898 13.2496 25.6698 11.9696 25.0198C11.6096 24.8498 11.4696 24.4098 11.6496 24.0498C11.8196 23.6898 12.2596 23.5498 12.6196 23.7198C13.2496 24.0398 13.9196 24.2598 14.5996 24.3898C15.5196 24.5698 16.4596 24.5798 17.3796 24.4198C18.0596 24.2998 18.7296 24.0898 19.3496 23.7898C19.7196 23.6198 20.1596 23.7598 20.3196 24.1298C20.4996 24.4898 20.3596 24.9298 19.9896 25.0998Z" fill="#292D32"/>
<path d="M16.0505 6.00977C14.5005 6.00977 13.2305 7.26977 13.2305 8.82977C13.2305 10.3898 14.4905 11.6498 16.0505 11.6498C17.6105 11.6498 18.8705 10.3898 18.8705 8.82977C18.8705 7.26977 17.6105 6.00977 16.0505 6.00977Z" fill="#292D32"/>
<path d="M9.05047 17.8701C7.50047 17.8701 6.23047 19.1301 6.23047 20.6901C6.23047 22.2501 7.49047 23.5101 9.05047 23.5101C10.6105 23.5101 11.8705 22.2501 11.8705 20.6901C11.8705 19.1301 10.6005 17.8701 9.05047 17.8701Z" fill="#292D32"/>
<path d="M22.9499 17.8701C21.3999 17.8701 20.1299 19.1301 20.1299 20.6901C20.1299 22.2501 21.3899 23.5101 22.9499 23.5101C24.5099 23.5101 25.7699 22.2501 25.7699 20.6901C25.7699 19.1301 24.5099 17.8701 22.9499 17.8701Z" fill="#292D32"/>
</svg>
