<svg width="32" height="32" viewBox="0 0 32 32" fill="none" xmlns="http://www.w3.org/2000/svg">
<path d="M11.2 6H13.8C17 6 19 8 19 11.2V15.25H12.75C12.34 15.25 12 15.59 12 16C12 16.41 12.34 16.75 12.75 16.75H19V20.8C19 24 17 26 13.8 26H11.21C8.01 26 6.01 24 6.01 20.8V11.2C6 8 8 6 11.2 6Z" fill="#202020"/>
<path d="M23.4396 15.2498L21.3696 13.1798C21.2196 13.0298 21.1496 12.8398 21.1496 12.6498C21.1496 12.4598 21.2196 12.2598 21.3696 12.1198C21.6596 11.8298 22.1396 11.8298 22.4296 12.1198L25.7796 15.4698C26.0696 15.7598 26.0696 16.2398 25.7796 16.5298L22.4296 19.8798C22.1396 20.1698 21.6596 20.1698 21.3696 19.8798C21.0796 19.5898 21.0796 19.1098 21.3696 18.8198L23.4396 16.7498H18.9996V15.2498H23.4396Z" fill="#202020"/>
</svg>
