<svg width="141" height="183" viewBox="0 0 141 183" fill="none" xmlns="http://www.w3.org/2000/svg">
<path fill-rule="evenodd" clip-rule="evenodd" d="M33.2959 47.8486C34.3757 34.8088 40.3366 22.6501 49.9951 13.7862C59.6538 4.92225 72.3041 0.00126226 85.4347 0H88.2469C101.378 0.00126226 114.028 4.92225 123.687 13.7862C133.345 22.6501 139.306 34.8088 140.386 47.8486C141.592 62.4071 137.081 76.8637 127.803 88.1734L96.6048 126.196C95.4224 127.638 93.9327 128.8 92.244 129.598C90.5553 130.396 88.71 130.81 86.841 130.81C84.9721 130.81 83.1264 130.396 81.4377 129.598C79.7489 128.8 78.2596 127.638 77.0769 126.196L45.8848 88.1734C36.6046 76.8645 32.0914 62.4079 33.2959 47.8486Z" fill="#F9FBFC"/>
<path d="M109.541 32.1996H98.2992L99.4006 27.839L104.131 26.2433C105.137 25.9046 105.736 24.8456 105.446 23.8331C105.372 23.5785 105.247 23.3413 105.078 23.136C104.909 22.9307 104.699 22.7616 104.462 22.6389C104.225 22.5162 103.965 22.4425 103.698 22.4222C103.432 22.402 103.163 22.4356 102.91 22.5211L97.1078 24.4776C96.7956 24.5831 96.5148 24.7645 96.2912 25.0053C96.0677 25.246 95.9091 25.5384 95.829 25.8557L94.2277 32.1996H78.0483C76.9853 32.1996 76.0726 33.0091 76.0199 34.0619C76.0068 34.3265 76.0485 34.5908 76.1417 34.839C76.2349 35.0872 76.3784 35.314 76.5627 35.5058C76.747 35.6975 76.9689 35.8501 77.215 35.9544C77.4606 36.0588 77.725 36.1126 77.9927 36.1126H78.3319L78.4553 37.1715C78.4844 37.4188 78.6045 37.6469 78.7921 37.8124C78.9801 37.9779 79.2225 38.0692 79.4738 38.0691C84.2887 38.0691 88.5677 39.4019 91.834 41.9233C93.6511 43.3099 95.124 45.0898 96.14 47.1264C96.7089 48.2721 97.1287 49.4846 97.3894 50.735C97.4413 50.9784 97.5872 51.1927 97.7956 51.3317C99.475 52.4603 100.714 54.1244 101.306 56.0469C101.899 57.9695 101.809 60.035 101.052 61.9005C100.964 62.1161 100.958 62.3562 101.034 62.5767C101.471 63.8181 101.695 65.1232 101.695 66.438C101.695 69.1699 100.757 71.7731 99.0536 73.769C98.0879 74.9078 96.8728 75.8142 95.5008 76.4186C95.2634 76.5221 95.0766 76.7141 94.981 76.9529C94.468 78.2759 93.7442 79.5088 92.8365 80.6044C92.7989 80.6488 92.7744 80.703 92.7666 80.7605C92.7589 80.8184 92.7679 80.8767 92.7924 80.9296C92.8169 80.9822 92.8566 81.027 92.9056 81.0584C92.9551 81.0898 93.0123 81.1065 93.0711 81.1069H99.1464C100.634 81.1008 102.065 80.5437 103.158 79.5447C104.251 78.5457 104.927 77.1775 105.053 75.7094L109.275 36.1126H109.596C109.864 36.1129 110.129 36.0593 110.375 35.9552C110.621 35.851 110.843 35.6984 111.028 35.5067C111.213 35.3149 111.356 35.0879 111.449 34.8396C111.543 34.5912 111.585 34.3267 111.572 34.0619C111.52 33.0091 110.604 32.1996 109.541 32.1996Z" fill="#F73042"/>
<path d="M60.7458 44.4254H6.34161C2.83923 44.4254 0 47.2568 0 50.7496C0 54.2423 2.83923 57.0737 6.34161 57.0737H60.7458C64.2482 57.0737 67.0874 54.2423 67.0874 50.7496C67.0874 47.2568 64.2482 44.4254 60.7458 44.4254Z" fill="#F9FBFC"/>
<path d="M60.7455 65.2389H33.0428C29.5404 65.2389 26.7012 68.0703 26.7012 71.563C26.7012 75.0558 29.5404 77.8872 33.0428 77.8872H60.7455C64.2479 77.8872 67.0871 75.0558 67.0871 71.563C67.0871 68.0703 64.2479 65.2389 60.7455 65.2389Z" fill="#F9FBFC"/>
<path d="M18.0239 65.2389H16.0213C12.5189 65.2389 9.67969 68.0703 9.67969 71.563C9.67969 75.0558 12.5189 77.8872 16.0213 77.8872H18.0239C21.5262 77.8872 24.3655 75.0558 24.3655 71.563C24.3655 68.0703 21.5262 65.2389 18.0239 65.2389Z" fill="#F9FBFC"/>
<path d="M64.9654 59.5871C65.3545 59.5855 65.7399 59.6601 66.0995 59.8068C66.4596 59.9539 66.7861 60.1699 67.0612 60.443L68.9731 62.3394C69.0188 62.3851 69.0732 62.421 69.1333 62.4454C69.1929 62.4703 69.2571 62.4829 69.3221 62.4829C69.3866 62.4829 69.4508 62.4703 69.5109 62.4454C69.5706 62.421 69.6249 62.3851 69.6707 62.3394L71.5793 60.443C71.8539 60.1699 72.1809 59.9539 72.5406 59.8068C72.9002 59.6601 73.2856 59.5855 73.6747 59.5871H97.9083C98.0378 59.5883 98.1662 59.5643 98.2863 59.5166C98.4065 59.4685 98.516 59.3976 98.6084 59.3075C98.7012 59.2174 98.7747 59.1107 98.8254 58.9925C98.8761 58.8743 98.9031 58.7471 98.9043 58.6187V58.6089C98.9031 57.482 98.5099 56.3897 97.791 55.5167C97.0725 54.6437 96.0724 54.0429 94.9596 53.8159C94.8582 50.1856 93.3571 47.1472 90.582 45.0123C88.0154 43.0266 84.586 41.98 80.6597 41.98H71.7836C63.3739 41.98 57.6775 46.7205 57.4838 53.8159C56.3709 54.0429 55.3708 54.6437 54.6524 55.5167C53.9335 56.3897 53.5403 57.482 53.5391 58.6089C53.5391 58.8686 53.6429 59.1172 53.828 59.3006C54.0127 59.484 54.2637 59.5871 54.5252 59.5871H64.9654ZM74.4884 63.4998C74.3588 63.4998 74.2305 63.5251 74.1108 63.574C73.991 63.6233 73.8823 63.695 73.7908 63.7859L71.0615 66.4942C70.5988 66.9528 69.9719 67.2103 69.3184 67.2103C68.6645 67.2103 68.0375 66.9528 67.5753 66.4942L64.846 63.7859C64.7541 63.695 64.6454 63.6233 64.5256 63.574C64.4059 63.5251 64.2775 63.4998 64.148 63.4998H55.5928C55.1297 63.4978 54.6806 63.6583 54.325 63.953C53.9694 64.2477 53.7303 64.6577 53.6498 65.1101C53.5758 65.5479 53.5387 65.9905 53.5391 66.4343C53.5391 70.1746 56.1437 73.2216 59.365 73.2815C59.6646 75.1303 60.3896 76.8005 61.4804 78.1076C63.094 80.0407 65.4399 81.1069 68.0854 81.1069H84.358C87.0035 81.1069 89.3494 80.0407 90.9629 78.1052C92.0537 76.7981 92.7787 75.1278 93.0783 73.2791C96.2997 73.2216 98.9043 70.1746 98.9043 66.4319C98.9047 65.988 98.8675 65.5454 98.7935 65.1077C98.7126 64.6557 98.4731 64.2461 98.118 63.9522C97.7624 63.6579 97.3136 63.4978 96.8506 63.4998H74.4884Z" fill="#F73042"/>
<path d="M67.7551 23.9653H23.0301C19.5277 23.9653 16.6885 26.7967 16.6885 30.2894C16.6885 33.7822 19.5277 36.6136 23.0301 36.6136H67.7551C71.2575 36.6136 74.0967 33.7822 74.0967 30.2894C74.0967 26.7967 71.2575 23.9653 67.7551 23.9653Z" fill="#F9FBFC"/>
<path d="M62.4326 144.889V169.143H57.5544V153.367L51.0389 169.143H47.3456L40.795 153.367V169.143H35.917V144.889H41.4571L49.192 162.923L56.9274 144.889H62.4326ZM85.1993 159.101C85.1993 159.796 85.1532 160.421 85.06 160.977H70.9485C71.0646 162.367 71.5526 163.456 72.4121 164.243C73.2716 165.031 74.3285 165.425 75.5827 165.425C77.3945 165.425 78.6839 164.649 79.4502 163.097H84.7118C84.1543 164.95 83.0856 166.479 81.506 167.683C79.9264 168.865 77.9871 169.455 75.6874 169.455C73.829 169.455 72.1566 169.05 70.6698 168.239C69.2067 167.405 68.0566 166.235 67.2204 164.73C66.4075 163.224 66.0009 161.487 66.0009 159.518C66.0009 157.526 66.4075 155.777 67.2204 154.271C68.0333 152.765 69.1715 151.607 70.6351 150.796C72.0986 149.985 73.7824 149.58 75.6874 149.58C77.5224 149.58 79.1601 149.974 80.6003 150.761C82.0634 151.549 83.1902 152.673 83.9798 154.132C84.7931 155.568 85.1993 157.224 85.1993 159.101ZM80.1471 157.711C80.1242 156.46 79.6709 155.464 78.7881 154.723C77.9058 153.958 76.8256 153.576 75.548 153.576C74.3399 153.576 73.3182 153.947 72.4816 154.688C71.6687 155.406 71.1692 156.414 70.9837 157.711H80.1471ZM87.5056 159.448C87.5056 157.502 87.889 155.777 88.6553 154.271C89.4453 152.765 90.5022 151.607 91.8264 150.796C93.1734 149.985 94.6717 149.58 96.3208 149.58C97.761 149.58 99.0153 149.869 100.084 150.448C101.176 151.028 102.047 151.757 102.697 152.638V149.893H107.61V169.143H102.697V166.328C102.07 167.231 101.199 167.984 100.084 168.587C98.992 169.166 97.7263 169.455 96.286 169.455C94.6602 169.455 93.1734 169.038 91.8264 168.204C90.5022 167.37 89.4453 166.201 88.6553 164.695C87.889 163.166 87.5056 161.417 87.5056 159.448ZM102.697 159.518C102.697 158.336 102.465 157.329 102 156.494C101.536 155.638 100.908 154.989 100.119 154.549C99.3292 154.086 98.4811 153.854 97.5751 153.854C96.6694 153.854 95.8332 154.074 95.0665 154.514C94.3002 154.954 93.6728 155.603 93.1849 156.46C92.7206 157.294 92.488 158.29 92.488 159.448C92.488 160.606 92.7206 161.626 93.1849 162.506C93.6728 163.363 94.3002 164.023 95.0665 164.486C95.8565 164.95 96.6927 165.181 97.5751 165.181C98.4811 165.181 99.3292 164.961 100.119 164.521C100.908 164.058 101.536 163.409 102 162.575C102.465 161.718 102.697 160.699 102.697 159.518ZM117.252 143.43V169.143H112.374V143.43H117.252ZM140.538 149.893L128.587 178.247H123.396L127.577 168.656L119.842 149.893H125.312L130.295 163.34L135.347 149.893H140.538Z" fill="#F9FBFC"/>
</svg>
