<svg width="32" height="32" viewBox="0 0 32 32" fill="none" xmlns="http://www.w3.org/2000/svg">
<path d="M20 6H12C8.5 6 7 8 7 11V21C7 24 8.5 26 12 26H20C23.5 26 25 24 25 21V11C25 8 23.5 6 20 6ZM12 16.25H16C16.41 16.25 16.75 16.59 16.75 17C16.75 17.41 16.41 17.75 16 17.75H12C11.59 17.75 11.25 17.41 11.25 17C11.25 16.59 11.59 16.25 12 16.25ZM20 21.75H12C11.59 21.75 11.25 21.41 11.25 21C11.25 20.59 11.59 20.25 12 20.25H20C20.41 20.25 20.75 20.59 20.75 21C20.75 21.41 20.41 21.75 20 21.75ZM22.5 13.25H20.5C18.98 13.25 17.75 12.02 17.75 10.5V8.5C17.75 8.09 18.09 7.75 18.5 7.75C18.91 7.75 19.25 8.09 19.25 8.5V10.5C19.25 11.19 19.81 11.75 20.5 11.75H22.5C22.91 11.75 23.25 12.09 23.25 12.5C23.25 12.91 22.91 13.25 22.5 13.25Z" fill="#202020"/>
</svg>
